<svg id="Layer_1" data-name="Layer 1" xmlns="http://www.w3.org/2000/svg" viewBox="0 0 446.81 411"><defs><style>.cls-1{fill:#28a5c8;}.cls-2{fill:none;stroke:#28a5c8;stroke-linecap:round;stroke-miterlimit:10;stroke-width:24px;}</style></defs><title>state</title><path class="cls-1" d="M463,225.5C463,339,371,431,257.5,431A205.42,205.42,0,0,1,76.61,323.05a12.3,12.3,0,0,1-.85-1.61L72.56,314a12.54,12.54,0,0,1,6.49-16.44h0a12.57,12.57,0,0,1,16.6,6.56l3.2,7.48c.06.14.1.29.16.43h0a180.48,180.48,0,1,0-8.58-155H63.7A205.59,205.59,0,0,1,257.5,20C371,20,463,112,463,225.5Z" transform="translate(-16.19 -20)"/><polygon class="cls-1" points="62.99 245.4 125.97 136.3 0 136.3 62.99 245.4"/><line class="cls-2" x1="235.63" y1="217.32" x2="319.56" y2="301.25"/><line class="cls-2" x1="235.31" y1="215.63" x2="235.31" y2="96.94"/></svg>