<?xml version="1.0" encoding="utf-8"?>
<!-- Generator: Adobe Illustrator 24.3.0, SVG Export Plug-In . SVG Version: 6.00 Build 0)  -->
<svg version="1.1" id="Layer_1" xmlns="http://www.w3.org/2000/svg" xmlns:xlink="http://www.w3.org/1999/xlink" x="0px" y="0px"
	 viewBox="0 0 24 24" style="enable-background:new 0 0 24 24;" xml:space="preserve">
<style type="text/css">
	.st0{fill:none;stroke:#28A5C8;stroke-width:2;stroke-linecap:round;stroke-linejoin:round;}
</style>
<g>
	<path class="st0" d="M1,3.2v6.6h6.6"/>
	<path class="st0" d="M3.7,15.3c0.7,2,2.1,3.8,3.9,5c1.8,1.2,3.9,1.8,6.1,1.6c2.1-0.1,4.2-0.9,5.8-2.3c1.6-1.4,2.8-3.3,3.3-5.4
		c0.5-2.1,0.3-4.3-0.6-6.3c-0.9-2-2.4-3.6-4.3-4.6c-1.9-1-4.1-1.4-6.2-1.1C9.6,2.5,7.6,3.5,6.1,5L1,9.8"/>
	<path class="st0" d="M13.1,6.5v6.6l4.4,2.2"/>
</g>
</svg>
