<svg id="Layer_2" data-name="Layer 2" xmlns="http://www.w3.org/2000/svg" viewBox="0 0 255.12 170.08"><defs><style>.cls-1{fill:#fff;}.cls-2{fill:#80cdea;}</style></defs><path class="cls-1" d="M120,102.37H67.89v-76h37.28L120,42.92Zm-48.15-4H116V45.69H102.28V30.36H71.89Zm34.39-56.68h7.27l-7.27-8.11Z"/><path class="cls-2" d="M132.05,140.87a1.25,1.25,0,0,1-.42-1.72h0a1.25,1.25,0,0,1,1.71-.43h0a1.26,1.26,0,0,1,.43,1.72h0a1.26,1.26,0,0,1-1.07.61h0A1.28,1.28,0,0,1,132.05,140.87Zm-6-3.62a1.23,1.23,0,0,1-.43-1.71h0a1.26,1.26,0,0,1,1.72-.43h0a1.25,1.25,0,0,1,.42,1.72h0a1.23,1.23,0,0,1-1.07.6h0A1.15,1.15,0,0,1,126.06,137.25Zm-6-3.61a1.25,1.25,0,0,1-.43-1.71h0a1.25,1.25,0,0,1,1.72-.43h0a1.26,1.26,0,0,1,.43,1.72h0a1.26,1.26,0,0,1-1.08.6h0A1.24,1.24,0,0,1,120.06,133.64Zm-6-3.61a1.25,1.25,0,0,1-.42-1.72h0a1.24,1.24,0,0,1,1.71-.42h0a1.23,1.23,0,0,1,.43,1.71h0a1.25,1.25,0,0,1-1.07.61h0A1.3,1.3,0,0,1,114.06,130Zm-6-3.61a1.26,1.26,0,0,1-.43-1.72h0a1.25,1.25,0,0,1,1.72-.42h0a1.24,1.24,0,0,1,.42,1.71h0a1.24,1.24,0,0,1-1.07.61h0A1.24,1.24,0,0,1,108.07,126.42Zm-6-3.62a1.24,1.24,0,0,1-.42-1.71h0a1.25,1.25,0,0,1,1.71-.43h0a1.26,1.26,0,0,1,.43,1.72h0a1.25,1.25,0,0,1-1.07.6h0A1.19,1.19,0,0,1,102.07,122.8Zm-6-3.6a1.25,1.25,0,0,1-.43-1.72h0a1.26,1.26,0,0,1,1.72-.43h0a1.25,1.25,0,0,1,.42,1.72h0a1.24,1.24,0,0,1-1.07.6h0A1.23,1.23,0,0,1,96.08,119.2Zm-6-3.62a1.25,1.25,0,0,1-.43-1.71h0a1.25,1.25,0,0,1,1.72-.43h0a1.26,1.26,0,0,1,.43,1.72h0a1.26,1.26,0,0,1-1.08.6h0A1.27,1.27,0,0,1,90.08,115.58Zm-6-3.61a1.25,1.25,0,0,1-.42-1.72h0a1.24,1.24,0,0,1,1.71-.42h0a1.23,1.23,0,0,1,.43,1.71h0a1.26,1.26,0,0,1-1.07.61h0A1.3,1.3,0,0,1,84.08,112Zm-6-3.61a1.26,1.26,0,0,1-.43-1.72h0a1.25,1.25,0,0,1,1.72-.42h0a1.24,1.24,0,0,1,.42,1.71h0a1.24,1.24,0,0,1-1.07.61h0A1.24,1.24,0,0,1,78.09,108.36Zm-6-3.62a1.24,1.24,0,0,1-.42-1.71h0a1.25,1.25,0,0,1,1.71-.43h0a1.26,1.26,0,0,1,.43,1.72h0a1.25,1.25,0,0,1-1.07.6h0A1.19,1.19,0,0,1,72.09,104.74Z"/><path class="cls-2" d="M165.16,63.58a1.25,1.25,0,0,1-.47-1.7h0a1.26,1.26,0,0,1,1.71-.47h0a1.25,1.25,0,0,1,.46,1.71h0a1.25,1.25,0,0,1-1.08.63h0A1.16,1.16,0,0,1,165.16,63.58Zm-6.08-3.48a1.24,1.24,0,0,1-.46-1.7h0a1.26,1.26,0,0,1,1.71-.47h0a1.26,1.26,0,0,1,.46,1.71h0a1.25,1.25,0,0,1-1.09.63h0A1.19,1.19,0,0,1,159.08,60.1ZM153,56.62a1.23,1.23,0,0,1-.46-1.7h0a1.25,1.25,0,0,1,1.7-.47h0a1.25,1.25,0,0,1,.46,1.71h0a1.24,1.24,0,0,1-1.08.63h0A1.19,1.19,0,0,1,153,56.62Zm-6.08-3.48a1.25,1.25,0,0,1-.46-1.7h0a1.26,1.26,0,0,1,1.71-.47h0a1.25,1.25,0,0,1,.46,1.71h0a1.25,1.25,0,0,1-1.08.63h0A1.22,1.22,0,0,1,146.93,53.14Zm-6.07-3.48a1.24,1.24,0,0,1-.46-1.7h0a1.25,1.25,0,0,1,1.7-.47h0a1.26,1.26,0,0,1,.47,1.71h0a1.25,1.25,0,0,1-1.09.63h0A1.19,1.19,0,0,1,140.86,49.66Zm-6.07-3.48a1.25,1.25,0,0,1-.47-1.7h0A1.25,1.25,0,0,1,136,44h0a1.23,1.23,0,0,1,.46,1.7h0a1.25,1.25,0,0,1-1.08.63h0A1.16,1.16,0,0,1,134.79,46.18Zm-6.08-3.48a1.24,1.24,0,0,1-.46-1.7h0a1.25,1.25,0,0,1,1.71-.46h0a1.24,1.24,0,0,1,.46,1.7h0a1.25,1.25,0,0,1-1.08.63h0A1.19,1.19,0,0,1,128.71,42.7Zm-6.07-3.47a1.25,1.25,0,0,1-.46-1.71h0a1.23,1.23,0,0,1,1.7-.46h0a1.25,1.25,0,0,1,.47,1.7h0a1.28,1.28,0,0,1-1.09.63h0A1.27,1.27,0,0,1,122.64,39.23Zm-6.07-3.48A1.26,1.26,0,0,1,116.1,34h0a1.25,1.25,0,0,1,1.71-.46h0a1.23,1.23,0,0,1,.46,1.7h0a1.23,1.23,0,0,1-1.08.63h0A1.25,1.25,0,0,1,116.57,35.75Zm-6.08-3.48a1.26,1.26,0,0,1-.46-1.71h0a1.25,1.25,0,0,1,1.71-.46h0a1.25,1.25,0,0,1,.46,1.7h0a1.23,1.23,0,0,1-1.09.63h0A1.27,1.27,0,0,1,110.49,32.27Z"/><path class="cls-2" d="M128.25,65.11a1.25,1.25,0,0,1-.45-1.71h0a1.25,1.25,0,0,1,1.71-.45h0a1.24,1.24,0,0,1,.45,1.71h0a1.24,1.24,0,0,1-1.08.62h0A1.32,1.32,0,0,1,128.25,65.11Zm-6-3.52a1.25,1.25,0,0,1-.45-1.71h0a1.25,1.25,0,0,1,1.71-.45h0a1.25,1.25,0,0,1,.45,1.71h0a1.24,1.24,0,0,1-1.08.62h0A1.22,1.22,0,0,1,122.2,61.59Zm-6-3.51a1.25,1.25,0,0,1-.45-1.71h0a1.25,1.25,0,0,1,1.7-.46h0a1.26,1.26,0,0,1,.46,1.71h0a1.24,1.24,0,0,1-1.08.62h0A1.28,1.28,0,0,1,116.15,58.08Zm-6.06-3.52a1.26,1.26,0,0,1-.45-1.71h0a1.25,1.25,0,0,1,1.71-.45h0a1.24,1.24,0,0,1,.45,1.71h0a1.24,1.24,0,0,1-1.08.62h0A1.32,1.32,0,0,1,110.09,54.56ZM104,51a1.26,1.26,0,0,1-.45-1.71h0a1.25,1.25,0,0,1,1.71-.45h0a1.25,1.25,0,0,1,.45,1.71h0a1.24,1.24,0,0,1-1.08.62h0A1.22,1.22,0,0,1,104,51ZM98,47.52a1.23,1.23,0,0,1-.45-1.7h0a1.26,1.26,0,0,1,1.71-.46h0a1.25,1.25,0,0,1,.45,1.71h0a1.24,1.24,0,0,1-1.08.62h0A1.22,1.22,0,0,1,98,47.52Zm-6-3.51a1.25,1.25,0,0,1-.45-1.71h0a1.23,1.23,0,0,1,1.7-.45h0a1.25,1.25,0,0,1,.46,1.7h0a1.25,1.25,0,0,1-1.08.63h0A1.29,1.29,0,0,1,91.94,44Zm-6-3.52a1.26,1.26,0,0,1-.46-1.71h0a1.25,1.25,0,0,1,1.71-.45h0A1.24,1.24,0,0,1,87.59,40h0a1.23,1.23,0,0,1-1.08.62h0A1.29,1.29,0,0,1,85.89,40.49ZM79.83,37a1.26,1.26,0,0,1-.45-1.71h0a1.25,1.25,0,0,1,1.71-.45h0a1.25,1.25,0,0,1,.45,1.71h0a1.24,1.24,0,0,1-1.08.62h0A1.22,1.22,0,0,1,79.83,37Zm-6-3.51a1.25,1.25,0,0,1-.45-1.71h0A1.26,1.26,0,0,1,75,31.29h0A1.25,1.25,0,0,1,75.49,33h0a1.25,1.25,0,0,1-1.08.63h0A1.32,1.32,0,0,1,73.78,33.46Z"/><polygon class="cls-1" points="173.47 83.04 186.12 83.04 173.47 68.95 173.47 83.04"/><path class="cls-1" d="M169.47,87V67.71H135.08v76h52.15V87Zm-16.77,29v3.58q0,4.77,3.63,5.92l-.66,2A8.67,8.67,0,0,1,151,124.7a8.29,8.29,0,0,1-1.55-5.24V116c0-2.81-1.22-4.22-3.68-4.22v-2.52c2.46,0,3.68-1.4,3.68-4.2v-3.62A8.32,8.32,0,0,1,151,96.32a8.64,8.64,0,0,1,4.64-2.85l.66,2q-3.63,1.17-3.63,6.06V105q0,3.94-2.9,5.49Q152.7,112.09,152.7,116.07Zm23.74-4.29c-2.46,0-3.68,1.41-3.68,4.22v3.51a8.13,8.13,0,0,1-1.58,5.23,8.84,8.84,0,0,1-4.61,2.83l-.67-2q3.53-1.12,3.64-5.75V116q0-4,3.15-5.47c-2.1-1-3.15-2.78-3.15-5.47v-3.53q0-4.89-3.63-6.06l.66-2a8.65,8.65,0,0,1,4.62,2.83,8.14,8.14,0,0,1,1.57,5.16v3.65c0,2.77,1.22,4.15,3.68,4.15Z"/></svg>