<svg xmlns="http://www.w3.org/2000/svg" viewBox="0 0 512.81 452.07"><defs><style>.cls-1{fill:#28a5c8;}</style></defs><title>warning</title><g id="Triangle"><path class="cls-1" d="M256.61,24a5.75,5.75,0,0,1,5.2,3L488.17,419.07a6,6,0,0,1-5.2,9H30.25a6,6,0,0,1-5.19-9L251.42,27a5.74,5.74,0,0,1,5.19-3m0-24a29.73,29.73,0,0,0-26,15L4.27,407.07a30,30,0,0,0,26,45H483a30,30,0,0,0,26-45L282.59,15a29.71,29.71,0,0,0-26-15Z" transform="translate(-0.21 0)"/></g><g id="Exclamation_Mark" data-name="Exclamation Mark"><path class="cls-1" d="M272,153.12l-5,165a12,12,0,0,1-24,0l-5-165a17,17,0,0,1,34-1C272,152.43,272,152.8,272,153.12Z" transform="translate(-0.21 0)"/><circle class="cls-1" cx="254.79" cy="369" r="20"/></g></svg>