<?xml version="1.0" encoding="utf-8"?>
<!-- Generator: Adobe Illustrator 23.0.3, SVG Export Plug-In . SVG Version: 6.00 Build 0)  -->
<svg version="1.1" id="Layer_1" xmlns="http://www.w3.org/2000/svg" xmlns:xlink="http://www.w3.org/1999/xlink" x="0px" y="0px"
	 viewBox="0 0 480 450" style="enable-background:new 0 0 480 450;" xml:space="preserve">
<style type="text/css">
	.st0{fill:#28A5C8;}
	.st1{fill:none;stroke:#28A5C8;stroke-width:34;stroke-linecap:round;stroke-miterlimit:10;}
</style>
<path class="st0" d="M245,430L245,430c-82.84,0-150-67.16-150-150V142h288v150C383,368.22,321.22,430,245,430z"/>
<path class="st0" d="M340.89,120H138.11v0c0-55.23,44.77-100,100-100h2.78C296.12,20,340.89,64.77,340.89,120L340.89,120z"/>
<line class="st1" x1="56.5" y1="101.5" x2="188" y2="233"/>
<line class="st1" x1="425" y1="104.5" x2="293.5" y2="236"/>
<line class="st1" x1="57.5" y1="407" x2="189" y2="275.5"/>
<line class="st1" x1="425" y1="403" x2="293.5" y2="271.5"/>
<line class="st1" x1="55.5" y1="254" x2="424" y2="254"/>
</svg>
