<svg id="Layer_2" data-name="Layer 2" xmlns="http://www.w3.org/2000/svg" viewBox="0 0 255.12 170.08"><defs><style>.cls-1{fill:#fff;}.cls-2{fill:#80cdea;}.cls-3{fill:#4f8899;}.cls-4{fill:#202021;}</style></defs><path class="cls-1" d="M208.05,64.24a10,10,0,0,1-9.4-6.59,10,10,0,1,1,9.4,6.59Zm0-17a6.88,6.88,0,0,0-2.39.42,7,7,0,1,0,2.39-.42Z"/><path class="cls-2" d="M177.37,65.25A8.91,8.91,0,0,0,166,59.93L88.78,88a8.91,8.91,0,0,1,6.11,16.75l77.16-28.08a8.91,8.91,0,0,0,5.32-11.43Z"/><path class="cls-3" d="M98.33,94a6.93,6.93,0,0,0-6.5-4.56,7,7,0,0,0-2.37.42h0a6.92,6.92,0,0,0,4.73,13h0A6.91,6.91,0,0,0,98.33,94Z"/><polygon class="cls-4" points="89.47 89.89 89.46 89.89 89.47 89.89 89.47 89.89"/><path class="cls-1" d="M49.38,111.85a1.26,1.26,0,0,1,.75-1.61h0a1.26,1.26,0,0,1,1.6.75h0a1.25,1.25,0,0,1-.75,1.6h0a1.31,1.31,0,0,1-.43.08h0A1.25,1.25,0,0,1,49.38,111.85Zm6.58-2.4a1.24,1.24,0,0,1,.74-1.6h0a1.24,1.24,0,0,1,1.6.75h0a1.24,1.24,0,0,1-.74,1.6h0a1.29,1.29,0,0,1-.43.07h0A1.23,1.23,0,0,1,56,109.45Zm6.57-2.39a1.25,1.25,0,0,1,.75-1.6h0a1.24,1.24,0,0,1,1.6.74h0a1.25,1.25,0,0,1-.74,1.6h0a1.12,1.12,0,0,1-.43.08h0A1.27,1.27,0,0,1,62.53,107.06Zm6.58-2.4a1.25,1.25,0,0,1,.75-1.6h0a1.25,1.25,0,0,1,1.6.75h0a1.25,1.25,0,0,1-.75,1.6h0a1.25,1.25,0,0,1-.42.08h0A1.27,1.27,0,0,1,69.11,104.66Zm6.58-2.39a1.24,1.24,0,0,1,.75-1.6h0a1.25,1.25,0,0,1,1.6.74h0a1.27,1.27,0,0,1-.75,1.61h0a1.29,1.29,0,0,1-.43.07h0A1.23,1.23,0,0,1,75.69,102.27Zm6.58-2.4a1.24,1.24,0,0,1,.74-1.6h0a1.27,1.27,0,0,1,1.61.75h0a1.25,1.25,0,0,1-.75,1.6h0a1.31,1.31,0,0,1-.43.08h0A1.24,1.24,0,0,1,82.27,99.87Zm6.58-2.39a1.24,1.24,0,0,1,.74-1.6h0a1.24,1.24,0,0,1,1.6.75h0a1.24,1.24,0,0,1-.74,1.6h0a1.29,1.29,0,0,1-.43.07h0A1.23,1.23,0,0,1,88.85,97.48Z"/><path class="cls-1" d="M65.68,106.05a14.75,14.75,0,0,0-27.23-1.19,14.77,14.77,0,0,0,13.36,21,14.77,14.77,0,0,0,13.87-19.81Z"/><path class="cls-1" d="M180.12,64.26a1.24,1.24,0,0,1,.74-1.6h0a1.24,1.24,0,0,1,1.6.75h0a1.24,1.24,0,0,1-.74,1.6h0a1.29,1.29,0,0,1-.43.07h0A1.23,1.23,0,0,1,180.12,64.26Zm6.57-2.39a1.27,1.27,0,0,1,.75-1.61h0A1.25,1.25,0,0,1,189,61h0a1.24,1.24,0,0,1-.75,1.6h0a1,1,0,0,1-.42.08h0A1.26,1.26,0,0,1,186.69,61.87Zm6.58-2.4a1.25,1.25,0,0,1,.75-1.6h0a1.25,1.25,0,0,1,1.6.75h0a1.25,1.25,0,0,1-.75,1.6h0a1.25,1.25,0,0,1-.42.08h0A1.25,1.25,0,0,1,193.27,59.47Zm13.16-4.79a1.24,1.24,0,0,1,.74-1.6h0a1.25,1.25,0,0,1,1.6.75h0a1.24,1.24,0,0,1-.74,1.6h0a1.31,1.31,0,0,1-.43.08h0A1.24,1.24,0,0,1,206.43,54.68Z"/></svg>