<svg id="Layer_2" data-name="Layer 2" xmlns="http://www.w3.org/2000/svg" viewBox="0 0 255.12 170.08"><defs><style>.cls-1{fill:#fff;}.cls-2{fill:#80cdea;}</style></defs><path class="cls-1" d="M170.08,60.31l-.24,0a1.13,1.13,0,0,1-.24-.08l-.21-.11-.19-.16a1.26,1.26,0,0,1-.37-.88,1,1,0,0,1,0-.24,1.09,1.09,0,0,1,.07-.24,1.39,1.39,0,0,1,.11-.21,1,1,0,0,1,.16-.19l.19-.16.21-.11a1.13,1.13,0,0,1,.24-.08,1.35,1.35,0,0,1,.49,0,.9.9,0,0,1,.23.08l.22.11.19.16a1,1,0,0,1,.15.19.88.88,0,0,1,.12.21,2.17,2.17,0,0,1,.07.24,1.94,1.94,0,0,1,0,.24,1.25,1.25,0,0,1-1.25,1.25Z"/><path class="cls-1" d="M164.22,55.49h0a1.24,1.24,0,0,1-.19-1.76h0a1.24,1.24,0,0,1,1.75-.2h0a1.24,1.24,0,0,1,.2,1.75h0a1.25,1.25,0,0,1-1,.47h0A1.27,1.27,0,0,1,164.22,55.49Zm-76-.22a1.24,1.24,0,0,1,.19-1.76h0a1.25,1.25,0,0,1,1.76.2h0a1.25,1.25,0,0,1-.2,1.76h0a1.25,1.25,0,0,1-.78.27h0A1.23,1.23,0,0,1,88.25,55.27Zm70.53-3.66a1.24,1.24,0,0,1-.39-1.72h0a1.25,1.25,0,0,1,1.72-.39h0a1.24,1.24,0,0,1,.39,1.72h0a1.23,1.23,0,0,1-1.05.59h0A1.27,1.27,0,0,1,158.78,51.61Zm-65.06-.4a1.24,1.24,0,0,1,.39-1.72h0a1.25,1.25,0,0,1,1.72.4h0a1.25,1.25,0,0,1-.39,1.72h0a1.25,1.25,0,0,1-.66.19h0A1.23,1.23,0,0,1,93.72,51.21Zm59.22-2.83a1.25,1.25,0,0,1-.58-1.67h0a1.25,1.25,0,0,1,1.67-.58h0a1.25,1.25,0,0,1,.58,1.67h0a1.26,1.26,0,0,1-1.13.7h0A1.29,1.29,0,0,1,152.94,48.38Zm-53.33-.59a1.25,1.25,0,0,1,.58-1.67h0a1.25,1.25,0,0,1,1.67.58h0a1.25,1.25,0,0,1-.58,1.67h0a1.32,1.32,0,0,1-.54.12h0A1.26,1.26,0,0,1,99.61,47.79Zm47.16-2a1.26,1.26,0,0,1-.76-1.6h0a1.25,1.25,0,0,1,1.59-.77h0a1.26,1.26,0,0,1,.76,1.6h0a1.25,1.25,0,0,1-1.18.84h0A1.53,1.53,0,0,1,146.77,45.83Zm-40.92-.78a1.25,1.25,0,0,1,.77-1.59h0a1.24,1.24,0,0,1,1.59.77h0a1.24,1.24,0,0,1-.76,1.59h0a1.54,1.54,0,0,1-.42.07h0A1.27,1.27,0,0,1,105.85,45.05ZM140.36,44a1.24,1.24,0,0,1-.94-1.5h0a1.25,1.25,0,0,1,1.49-.94h0a1.25,1.25,0,0,1,.94,1.5h0a1.24,1.24,0,0,1-1.22,1h0A1.24,1.24,0,0,1,140.36,44Zm-28-.95a1.25,1.25,0,0,1,1-1.49h0a1.24,1.24,0,0,1,1.49.94h0a1.25,1.25,0,0,1-.94,1.49h0a.9.9,0,0,1-.28,0h0A1.27,1.27,0,0,1,112.36,43Zm14.75-.54a1.25,1.25,0,0,1-1.25-1.25h0A1.25,1.25,0,0,1,127.11,40h0a1.25,1.25,0,0,1,1.25,1.25h0a1.25,1.25,0,0,1-1.25,1.25Z"/><path class="cls-1" d="M84.12,60.31a1.25,1.25,0,0,1-1.25-1.25,2.29,2.29,0,0,1,0-.25c0-.07,0-.15.07-.23a.88.88,0,0,1,.12-.21,1,1,0,0,1,.15-.19,1.29,1.29,0,0,1,1.77,0,1,1,0,0,1,.16.19,1.39,1.39,0,0,1,.11.21,1.19,1.19,0,0,1,.07.23,1.13,1.13,0,0,1,0,.25,1.26,1.26,0,0,1-.37.88A1.22,1.22,0,0,1,84.12,60.31Z"/><path class="cls-2" d="M176.58,117.43a9.54,9.54,0,0,1,.15-10,7.64,7.64,0,1,0-5.64,12.78,7.41,7.41,0,0,0,1.71-.2A9.64,9.64,0,0,1,176.58,117.43Z"/><path class="cls-2" d="M188.21,121.57a9.54,9.54,0,0,1-.17,10.06A7.64,7.64,0,1,0,193,117.78,9.77,9.77,0,0,1,188.21,121.57Z"/><path class="cls-2" d="M192.48,111.81a9.66,9.66,0,0,1-6.35-6.8,7.47,7.47,0,0,0-1.26-.12,7.61,7.61,0,0,0-5.64,2.51,7.4,7.4,0,0,0-.66.82,7.13,7.13,0,0,0-.59,1,7.55,7.55,0,0,0,0,6.56,7,7,0,0,0,.59,1l.05.07a9.81,9.81,0,0,1,1.09-.09h.21a9.55,9.55,0,0,1,5.63,1.84,9.22,9.22,0,0,1,.78.62c.21.2.42.4.62.61l.31-.1a7.71,7.71,0,0,0,2.79-1.65,7.63,7.63,0,0,0,1.12-1.29,7.72,7.72,0,0,0,1.34-4.31C192.51,112.29,192.5,112.05,192.48,111.81Z"/><path class="cls-2" d="M195.47,95a7.65,7.65,0,0,0-7.65,7.64c0,.25,0,.49,0,.72a8.48,8.48,0,0,0,.2,1.14,7.79,7.79,0,0,0,.46,1.31,7.61,7.61,0,0,0,3.3,3.54,7.4,7.4,0,0,0,1.29.56,7.67,7.67,0,0,0,1.1.26,7.47,7.47,0,0,0,1.26.11,7.64,7.64,0,1,0,0-15.28Z"/><path class="cls-2" d="M186.17,122.08c-.12-.16-.23-.32-.36-.47s-.27-.31-.41-.46l-.3-.29a7.68,7.68,0,0,0-.78-.63l-.11-.08a7.6,7.6,0,0,0-3.63-1.3c-.22,0-.44,0-.66,0a6.84,6.84,0,0,0-.91.06,7.62,7.62,0,0,0-.81.14l-.36.09a7.64,7.64,0,1,0,7.48,12.76,9.32,9.32,0,0,0,.65-.76,10,10,0,0,0,.58-.86,7.61,7.61,0,0,0-.38-8.17Z"/><path class="cls-1" d="M211.72,78.71s0,0,0-.06a.31.31,0,0,0,0-.1v-.1a.19.19,0,0,1,0-.08c-.29-6-14.6-9.12-28.75-9.12s-28.46,3.13-28.74,9.12a.25.25,0,0,0,0,.08s0,.07,0,.1,0,.07,0,.1v.18c0,.12,0,.24,0,.35l5.6,54.15c.22,6.28,22.16,6.35,23.1,6.35s22.89-.07,23.1-6.35l5.61-54.15,0-.35ZM183,72.25c18,0,25.66,4.45,25.76,6.27l0,.22c-.5,1.9-8.24,6.11-25.73,6.11s-25.23-4.21-25.73-6.11l0-.22C157.31,76.7,165,72.25,183,72.25Zm20.11,60.83v.09c-.7,1.28-7.91,3.51-20.1,3.51s-19.39-2.23-20.1-3.51l-5.16-49.93c5.14,3,15.24,4.61,25.26,4.61s20.12-1.57,25.27-4.61Z"/><path class="cls-1" d="M72.14,69.25c-14.29,0-28.75,3.19-28.75,9.3,0,0,0,.1,0,.15h0l0,.12c0,.12,0,.24,0,.35l5.61,54.15c.21,6.28,22.16,6.35,23.09,6.35s22.89-.07,23.1-6.35l5.61-54.15c0-.11,0-.23,0-.35l0-.12h0s0-.1,0-.15C100.9,72.44,86.44,69.25,72.14,69.25Zm0,3c18,0,25.66,4.45,25.76,6.27l0,.22c-.51,1.9-8.25,6.11-25.74,6.11s-25.22-4.21-25.73-6.11l0-.22C46.49,76.7,54.16,72.25,72.14,72.25Zm20.11,60.83v.09c-.7,1.28-7.91,3.51-20.1,3.51s-19.39-2.23-20.1-3.51L46.88,83.24c5.14,3,15.24,4.61,25.26,4.61s20.13-1.57,25.27-4.61Z"/><path class="cls-2" d="M92,102.89a7.65,7.65,0,0,0-15.29,0c0,.14,0,.28,0,.41A9.64,9.64,0,0,1,83,110.41a7.53,7.53,0,0,0,1.35.13A7.66,7.66,0,0,0,92,102.89Z"/><path class="cls-2" d="M74,122a9.56,9.56,0,0,1-.22,7.4A7.64,7.64,0,1,0,82,117.18,9.63,9.63,0,0,1,74,122Z"/><path class="cls-2" d="M72.05,122.62c-.11-.26-.23-.52-.36-.77l-.45-.09c-.32-.09-.64-.18-.95-.3A9.49,9.49,0,0,1,66.6,119a10.66,10.66,0,0,1-.95-1.18c-.23,0-.46,0-.69,0a7.63,7.63,0,1,0,7,10.77,6.93,6.93,0,0,0,.46-1.35,7.48,7.48,0,0,0,.22-1.78A7.68,7.68,0,0,0,72.05,122.62Z"/><path class="cls-2" d="M80.7,109.59a7.6,7.6,0,0,0-1.55-2.44,7.71,7.71,0,0,0-5.34-2.38h-.22a7.62,7.62,0,0,0-5.87,12.51c.11.13.21.26.33.39a7.59,7.59,0,0,0,3,2l.31.1.69.17a7.32,7.32,0,0,0,.8.11l.3,0h.19A7.66,7.66,0,0,0,78.86,118a8.22,8.22,0,0,0,1-1.19,9.23,9.23,0,0,0,.56-1,7.94,7.94,0,0,0,.4-1,7.7,7.7,0,0,0,.4-2.24A7.54,7.54,0,0,0,80.7,109.59Z"/><polygon class="cls-2" points="124.56 44.67 127.1 48.33 129.63 44.67 127.1 45.8 124.56 44.67"/><polygon class="cls-2" points="123.34 42.24 127.1 43.91 130.85 42.24 127.1 35.98 123.34 42.24"/><path class="cls-2" d="M127.41,30.4A11.6,11.6,0,1,0,138.7,42.31,11.6,11.6,0,0,0,127.41,30.4Zm-.31,21-6-8.7,6-10,6,10Z"/></svg>