<svg id="Layer_1" data-name="Layer 1" xmlns="http://www.w3.org/2000/svg" viewBox="0 0 300 410"><defs><style>.cls-1{fill:#28a5c8;}.cls-2{fill:none;stroke:#28a5c8;stroke-linecap:round;stroke-miterlimit:10;stroke-width:21px;}</style></defs><title>udc</title><path class="cls-1" d="M369,41V409H111V41H369m15.9-21H95.1A5.11,5.11,0,0,0,90,25.1V424.9a5.11,5.11,0,0,0,5.1,5.1H384.9a5.12,5.12,0,0,0,5.1-5.1V25.1a5.12,5.12,0,0,0-5.1-5.1Z" transform="translate(-90 -20)"/><line class="cls-2" x1="60.5" y1="84.5" x2="240.5" y2="84.5"/><line class="cls-2" x1="60.5" y1="144.5" x2="240.5" y2="144.5"/><line class="cls-2" x1="60.5" y1="204.5" x2="240.5" y2="204.5"/><line class="cls-2" x1="60.5" y1="264.5" x2="240.5" y2="264.5"/><line class="cls-2" x1="60.5" y1="324.5" x2="240.5" y2="324.5"/></svg>