<svg width="16" height="16" viewBox="0 0 16 16" fill="none" xmlns="http://www.w3.org/2000/svg">
<path fill-rule="evenodd" clip-rule="evenodd" d="M1.39999 4C1.39999 3.66863 1.66862 3.4 1.99999 3.4H14C14.3314 3.4 14.6 3.66863 14.6 4C14.6 4.33137 14.3314 4.6 14 4.6H1.99999C1.66862 4.6 1.39999 4.33137 1.39999 4Z" fill="#7F878D"/>
<path fill-rule="evenodd" clip-rule="evenodd" d="M6.66667 1.93334C6.47218 1.93334 6.28565 2.0106 6.14813 2.14812C6.0106 2.28565 5.93334 2.47218 5.93334 2.66667V3.4H10.0667V2.66667C10.0667 2.47218 9.98941 2.28565 9.85188 2.14812C9.71436 2.0106 9.52783 1.93334 9.33334 1.93334H6.66667ZM11.2667 3.4V2.66667C11.2667 2.15392 11.063 1.66217 10.7004 1.2996C10.3378 0.937025 9.84609 0.733335 9.33334 0.733335H6.66667C6.15392 0.733335 5.66217 0.937025 5.2996 1.2996C4.93703 1.66217 4.73334 2.15392 4.73334 2.66667V3.4H3.33334C3.00197 3.4 2.73334 3.66863 2.73334 4V13.3333C2.73334 13.8461 2.93703 14.3378 3.2996 14.7004C3.66217 15.063 4.15392 15.2667 4.66667 15.2667H11.3333C11.8461 15.2667 12.3378 15.063 12.7004 14.7004C13.063 14.3378 13.2667 13.8461 13.2667 13.3333V4C13.2667 3.66863 12.998 3.4 12.6667 3.4H11.2667ZM3.93334 4.6V13.3333C3.93334 13.5278 4.0106 13.7144 4.14813 13.8519C4.28565 13.9894 4.47218 14.0667 4.66667 14.0667H11.3333C11.5278 14.0667 11.7144 13.9894 11.8519 13.8519C11.9894 13.7144 12.0667 13.5278 12.0667 13.3333V4.6H3.93334Z" fill="#7F878D"/>
<path fill-rule="evenodd" clip-rule="evenodd" d="M6.66667 6.73334C6.99804 6.73334 7.26667 7.00197 7.26667 7.33334V11.3333C7.26667 11.6647 6.99804 11.9333 6.66667 11.9333C6.33529 11.9333 6.06667 11.6647 6.06667 11.3333V7.33334C6.06667 7.00197 6.33529 6.73334 6.66667 6.73334Z" fill="#7F878D"/>
<path fill-rule="evenodd" clip-rule="evenodd" d="M9.33334 6.73334C9.66471 6.73334 9.93334 7.00197 9.93334 7.33334V11.3333C9.93334 11.6647 9.66471 11.9333 9.33334 11.9333C9.00197 11.9333 8.73334 11.6647 8.73334 11.3333V7.33334C8.73334 7.00197 9.00197 6.73334 9.33334 6.73334Z" fill="#7F878D"/>
</svg>
