<svg id="Layer_1" data-name="Layer 1" xmlns="http://www.w3.org/2000/svg" viewBox="0 0 24.96 18.63"><defs><style>.cls-1,.cls-3,.cls-4{fill:none;stroke:#7f878d;stroke-linecap:round;}.cls-1,.cls-4{stroke-linejoin:round;}.cls-2{fill:#7f878d;}.cls-4{stroke-width:2px;}</style></defs><path class="cls-1" d="M13.51,6.69H2.86A2.16,2.16,0,0,0,.52,8.61v7.67a2.16,2.16,0,0,0,2.34,1.91h16.4a2.16,2.16,0,0,0,2.34-1.91v-2.4" transform="translate(-0.02 -2.93)"/><path class="cls-1" d="M17.77,13.4V11.48" transform="translate(-0.02 -2.93)"/><path class="cls-1" d="M4.35,13.4V11.48" transform="translate(-0.02 -2.93)"/><circle class="cls-2" cx="11.04" cy="9.51" r="2.88"/><path class="cls-3" d="M24.48,15.8v1.43a3.84,3.84,0,0,1-3.83,3.84H4.83" transform="translate(-0.02 -2.93)"/><path class="cls-4" d="M23.87,3.93,19.8,8" transform="translate(-0.02 -2.93)"/><path class="cls-4" d="M23.87,8,19.8,3.93" transform="translate(-0.02 -2.93)"/></svg>