<svg id="Layer_1" data-name="Layer 1" xmlns="http://www.w3.org/2000/svg" viewBox="0 0 411 411"><defs><style>.cls-1{fill:#28a5c8;}</style></defs><title>info</title><path class="cls-1" d="M266.5,294h-9.19V190.5a12.8,12.8,0,0,0-3.31-8.71,9.9,9.9,0,0,0-7.62-3.79H217.5c-5.77,0-10.5,5.4-10.5,12v11c0,6.6,4.73,12,10.5,12h9.19v81H217.5c-5.77,0-10.5,5.4-10.5,12v11c0,6.6,4.73,12,10.5,12h49c5.77,0,10.5-5.4,10.5-12V306C277,299.4,272.27,294,266.5,294Z" transform="translate(-35 -20)"/><circle class="cls-1" cx="207" cy="115" r="26"/><path class="cls-1" d="M240.5,20C127,20,35,112,35,225.5S127,431,240.5,431,446,339,446,225.5,354,20,240.5,20Zm0,396C135.29,416,50,330.71,50,225.5S135.29,35,240.5,35,431,120.29,431,225.5,345.71,416,240.5,416Z" transform="translate(-35 -20)"/></svg>