<svg id="Layer_1" data-name="Layer 1" xmlns="http://www.w3.org/2000/svg" viewBox="0 0 350 409"><defs><style>.cls-1,.cls-2{fill:#28a5c8;}.cls-1{opacity:0.7;}</style></defs><title>notifications</title><path class="cls-1" d="M274,395.5a34.5,34.5,0,0,1-69,0c0-.17,0-.33,0-.5h69C274,395.17,274,395.33,274,395.5Z" transform="translate(-64.29 -21)"/><circle class="cls-2" cx="175.71" cy="24" r="24"/><path class="cls-2" d="M239.29,69c29.26,0,57,11.93,78.2,33.6,21.46,22,33.86,51.52,34.94,83.21l.08,2.56V288.43c0,18.38,11.33,35,28.2,41.33,5.6,2.11,9.45,8.08,9.58,14.88.16,8.69-6.38,16.18-14.3,16.34l-.73,0H103.32l-.73,0c-7.92-.16-14.46-7.65-14.3-16.34.13-6.8,4-12.77,9.58-14.88,16.87-6.34,28.2-22.95,28.2-41.33V188.37l.09-2.56c1.07-31.69,13.47-61.24,34.93-83.21C182.25,80.93,210,69,239.29,69m0-24c-74.11,0-134.49,62.21-137.12,140h-.07s0,0,0,0V288.43A20,20,0,0,1,89.42,307.3C75,312.72,64.62,327.14,64.3,344.18c-.42,22.18,16.92,40.36,37.78,40.8l0,0H376.48l0,0c20.86-.44,38.2-18.62,37.78-40.8-.32-17-10.71-31.46-25.12-36.88a20,20,0,0,1-12.65-18.87V185s0,0,0,0h-.07c-2.63-77.79-63-140-137.12-140Z" transform="translate(-64.29 -21)"/></svg>