<?xml version="1.0" encoding="UTF-8"?>
<svg width="46px" height="45px" viewBox="0 0 46 45" version="1.1" xmlns="http://www.w3.org/2000/svg" xmlns:xlink="http://www.w3.org/1999/xlink">
    <!-- Generator: Sketch 64 (93537) - https://sketch.com -->
    <title>Combined Shape</title>
    <desc>Created with Sketch.</desc>
    <g id="Page-1" stroke="none" stroke-width="1" fill="none" fill-rule="evenodd">
        <g id="LC:-Transfer-Screen" transform="translate(-60.000000, -770.000000)" fill="#28A5C8">
            <g id="section-transaction-history" transform="translate(60.500000, 518.000000)">
                <g id="item" transform="translate(0.086914, 251.000000)">
                    <g id="left" transform="translate(0.000000, 1.000000)">
                        <path d="M32.0189361,-2.58830178e-13 C36.4765298,-2.59649025e-13 38.092961,0.464128056 39.7225906,1.33566352 C41.3522202,2.20719898 42.6311631,3.48614185 43.5026986,5.11577148 C44.374234,6.74540111 44.8383621,8.3618323 44.8383621,12.819426 L44.8383621,32.0189361 C44.8383621,36.4765298 44.374234,38.092961 43.5026986,39.7225906 C42.6311631,41.3522202 41.3522202,42.6311631 39.7225906,43.5026986 C38.092961,44.374234 36.4765298,44.8383621 32.0189361,44.8383621 L12.819426,44.8383621 C8.3618323,44.8383621 6.74540111,44.374234 5.11577148,43.5026986 C3.48614185,42.6311631 2.20719898,41.3522202 1.33566352,39.7225906 C0.464128056,38.092961 -1.73882353e-13,36.4765298 -1.7442825e-13,32.0189361 L-1.7373769e-13,12.819426 C-1.74283588e-13,8.3618323 0.464128056,6.74540111 1.33566352,5.11577148 C2.20719898,3.48614185 3.48614185,2.20719898 5.11577148,1.33566352 C6.74540111,0.464128056 8.3618323,-2.59047172e-13 12.819426,-2.59866019e-13 L32.0189361,-2.58830178e-13 Z M25.7535351,16.8730674 L17.6197253,25.0068772 L17.6197253,21.1157082 C17.6197253,20.4529665 17.0824669,19.9157082 16.4197252,19.9157082 C15.7569835,19.9157082 15.2197252,20.4529665 15.2197252,21.1157082 L15.2197252,27.8197143 C15.2110281,27.9559257 15.2260667,28.0920385 15.262328,28.2219859 C15.2871422,28.3124912 15.3222882,28.3987236 15.366419,28.4793362 C15.5611708,28.8387757 15.934983,29.1032684 16.4179025,29.1039324 C16.493524,29.1039336 16.6048597,29.1045275 16.7405011,29.1039336 L23.2079506,29.1039336 C23.8706923,29.1039336 24.4079506,28.5666753 24.4079506,27.9039336 C24.4079506,27.2411919 23.8706923,26.7039336 23.2079506,26.7039336 L19.3167816,26.7039336 L27.4505914,18.5701237 C27.9192206,18.1014945 27.9192206,17.3416965 27.4505916,16.8730675 C26.9819623,16.4044382 26.2221643,16.4044382 25.7535351,16.8730674 Z" id="Combined-Shape"></path>
                    </g>
                </g>
            </g>
        </g>
    </g>
</svg>