<?xml version="1.0" encoding="utf-8"?>
<!-- Generator: Adobe Illustrator 23.0.3, SVG Export Plug-In . SVG Version: 6.00 Build 0)  -->
<svg version="1.1" id="Layer_1" xmlns="http://www.w3.org/2000/svg" xmlns:xlink="http://www.w3.org/1999/xlink" x="0px" y="0px"
	 viewBox="0 0 35 36" style="enable-background:new 0 0 35 36;" xml:space="preserve">
<style type="text/css">
	.st0{fill-rule:evenodd;clip-rule:evenodd;fill:#3F3F3F;fill-opacity:0.2;}
</style>
<path class="st0" d="M1.1,6.4C0,8.6,0,11.4,0,17v3c0,5.6,0,8.4,1.1,10.5c1,1.9,2.5,3.4,4.4,4.4C7.6,36,10.4,36,16,36h3
	c5.6,0,8.4,0,10.5-1.1c1.9-1,3.4-2.5,4.4-4.4C35,28.4,35,25.6,35,20v-3c0-5.6,0-8.4-1.1-10.5c-1-1.9-2.5-3.4-4.4-4.4
	C27.4,1,24.6,1,19,1h-3C10.4,1,7.6,1,5.5,2.1C3.6,3,2,4.6,1.1,6.4z M19.1,22.8c0,0.5-0.4,0.9-0.9,0.9h-5c-0.1,0-0.1,0-0.2,0
	c0,0,0,0-0.1,0c-0.4,0-0.7-0.2-0.8-0.5c0-0.1-0.1-0.1-0.1-0.2c0-0.1,0-0.2,0-0.3v-5.2c0-0.5,0.4-0.9,0.9-0.9c0.5,0,0.9,0.4,0.9,0.9
	v3l6.3-6.3c0.4-0.4,1-0.4,1.3,0c0.4,0.4,0.4,1,0,1.3l-6.3,6.3h3C18.6,21.8,19.1,22.3,19.1,22.8z"/>
</svg>
