<?xml version="1.0" encoding="utf-8"?>
<!-- Generator: Adobe Illustrator 23.0.3, SVG Export Plug-In . SVG Version: 6.00 Build 0)  -->
<svg version="1.1" id="Layer_1" xmlns="http://www.w3.org/2000/svg" xmlns:xlink="http://www.w3.org/1999/xlink" x="0px" y="0px"
	 viewBox="0 0 35 35" style="enable-background:new 0 0 35 35;" xml:space="preserve">
<style type="text/css">
	.st0{fill-rule:evenodd;clip-rule:evenodd;fill:#3F3F3F;fill-opacity:0.2;}
</style>
<path class="st0" d="M1.1,5.5C0,7.6,0,10.4,0,16v3c0,5.6,0,8.4,1.1,10.5c1,1.9,2.5,3.4,4.4,4.4C7.6,35,10.4,35,16,35h3
	c5.6,0,8.4,0,10.5-1.1c1.9-1,3.4-2.5,4.4-4.4C35,27.4,35,24.6,35,19v-3c0-5.6,0-8.4-1.1-10.5c-1-1.9-2.5-3.4-4.4-4.4
	C27.4,0,24.6,0,19,0h-3C10.4,0,7.6,0,5.5,1.1C3.6,2,2,3.6,1.1,5.5z M14.5,13.8c0-0.5,0.4-0.9,0.9-0.9h5c0.1,0,0.1,0,0.2,0
	c0,0,0,0,0.1,0c0.4,0,0.7,0.2,0.8,0.5c0,0.1,0.1,0.1,0.1,0.2c0,0.1,0,0.2,0,0.3v5.2c0,0.5-0.4,0.9-0.9,0.9c-0.5,0-0.9-0.4-0.9-0.9
	v-3l-6.3,6.3c-0.4,0.4-1,0.4-1.3,0c-0.4-0.4-0.4-1,0-1.3l6.3-6.3h-3C14.9,14.8,14.5,14.4,14.5,13.8z"/>
</svg>
