<?xml version="1.0" encoding="UTF-8"?>
<svg width="46px" height="45px" viewBox="0 0 46 45" version="1.1" xmlns="http://www.w3.org/2000/svg" xmlns:xlink="http://www.w3.org/1999/xlink">
    <!-- Generator: Sketch 64 (93537) - https://sketch.com -->
    <title>Combined Shape</title>
    <desc>Created with Sketch.</desc>
    <g id="Page-1" stroke="none" stroke-width="1" fill="none" fill-rule="evenodd">
        <g id="LC:-Transfer-Screen" transform="translate(-60.000000, -573.000000)" fill="#28A5C8">
            <g id="section-transaction-history" transform="translate(60.500000, 518.000000)">
                <g id="item" transform="translate(0.086914, 54.000000)">
                    <g id="left" transform="translate(0.000000, 1.000000)">
                        <path d="M32.0189361,-1.01402209e-14 C36.4765298,-1.09590676e-14 38.092961,0.464128056 39.7225906,1.33566352 C41.3522202,2.20719898 42.6311631,3.48614185 43.5026986,5.11577148 C44.374234,6.74540111 44.8383621,8.3618323 44.8383621,12.819426 L44.8383621,32.0189361 C44.8383621,36.4765298 44.374234,38.092961 43.5026986,39.7225906 C42.6311631,41.3522202 41.3522202,42.6311631 39.7225906,43.5026986 C38.092961,44.374234 36.4765298,44.8383621 32.0189361,44.8383621 L12.819426,44.8383621 C8.3618323,44.8383621 6.74540111,44.374234 5.11577148,43.5026986 C3.48614185,42.6311631 2.20719898,41.3522202 1.33566352,39.7225906 C0.464128056,38.092961 -6.90480967e-15,36.4765298 -7.45070746e-15,32.0189361 L-6.76014726e-15,12.819426 C-7.30604504e-15,8.3618323 0.464128056,6.74540111 1.33566352,5.11577148 C2.20719898,3.48614185 3.48614185,2.20719898 5.11577148,1.33566352 C6.74540111,0.464128056 8.3618323,-1.03572145e-14 12.819426,-1.11760612e-14 L32.0189361,-1.01402209e-14 Z M26.6021849,16.5232978 L19.8121368,16.5232966 C19.1493951,16.5232966 18.6121368,17.0605549 18.6121368,17.7232966 C18.6121368,18.3860384 19.1493951,18.9232967 19.8121368,18.9232967 L23.7033058,18.9232967 L15.5694959,27.0571065 C15.1008668,27.5257357 15.1008668,28.2855337 15.5694958,28.7541627 C16.0381251,29.222792 16.7979231,29.222792 17.2665523,28.7541629 L25.4003621,20.620353 L25.4003621,24.511522 C25.4003621,25.1742637 25.9376204,25.7115221 26.6003622,25.7115221 C27.2631039,25.7115221 27.8003622,25.1742637 27.8003622,24.511522 L27.8003622,17.8075159 C27.8090592,17.6713046 27.7940206,17.5351918 27.7577594,17.4052443 C27.7329451,17.314739 27.6977991,17.2285066 27.6536684,17.1478941 C27.4589166,16.7884545 27.0851044,16.5239618 26.6021849,16.5232978 Z" id="Combined-Shape"></path>
                    </g>
                </g>
            </g>
        </g>
    </g>
</svg>