<?xml version="1.0" encoding="utf-8"?>
<!-- Generator: Adobe Illustrator 24.3.0, SVG Export Plug-In . SVG Version: 6.00 Build 0)  -->
<svg version="1.1" id="Layer_1" xmlns="http://www.w3.org/2000/svg" xmlns:xlink="http://www.w3.org/1999/xlink" x="0px" y="0px"
	 viewBox="0 0 24 24" style="enable-background:new 0 0 24 24;" xml:space="preserve">
<style type="text/css">
	.st0{fill:#28A5C8;}
</style>
<path class="st0" d="M9.6,21.6h-6c-0.3,0-0.6-0.1-0.8-0.4c-0.2-0.2-0.4-0.5-0.4-0.8V3.6c0-0.3,0.1-0.6,0.4-0.8
	C3,2.5,3.3,2.4,3.6,2.4h6V6c0,1,0.4,1.9,1.1,2.5c0.7,0.7,1.6,1.1,2.5,1.1H18c0.2,0,0.5-0.1,0.7-0.2c0.2-0.1,0.3-0.3,0.4-0.5
	c0.1-0.2,0.1-0.5,0.1-0.7c0-0.2-0.2-0.4-0.3-0.6l-7.2-7.2c-0.1-0.1-0.2-0.2-0.3-0.2c0,0-0.1,0-0.1,0L10.9,0H3.6
	c-1,0-1.9,0.4-2.5,1.1S0,2.6,0,3.6v16.8c0,1,0.4,1.9,1.1,2.5C1.7,23.6,2.6,24,3.6,24h6c0.3,0,0.6-0.1,0.8-0.4
	c0.2-0.2,0.4-0.5,0.4-0.8c0-0.3-0.1-0.6-0.4-0.8C10.2,21.7,9.9,21.6,9.6,21.6z M12,4.1l3.1,3.1h-1.9c-0.3,0-0.6-0.1-0.8-0.4
	C12.1,6.6,12,6.3,12,6V4.1z M13.2,13.2c0-0.3-0.1-0.6-0.4-0.8C12.6,12.1,12.3,12,12,12H6c-0.3,0-0.6,0.1-0.8,0.4
	c-0.2,0.2-0.4,0.5-0.4,0.8c0,0.3,0.1,0.6,0.4,0.8c0.2,0.2,0.5,0.4,0.8,0.4h6c0.3,0,0.6-0.1,0.8-0.4C13.1,13.8,13.2,13.5,13.2,13.2z
	 M6,9.6h1.2c0.3,0,0.6-0.1,0.8-0.4C8.3,9,8.4,8.7,8.4,8.4c0-0.3-0.1-0.6-0.4-0.8C7.8,7.3,7.5,7.2,7.2,7.2H6c-0.3,0-0.6,0.1-0.8,0.4
	C4.9,7.8,4.8,8.1,4.8,8.4c0,0.3,0.1,0.6,0.4,0.8C5.4,9.5,5.7,9.6,6,9.6z M6,16.8c-0.3,0-0.6,0.1-0.8,0.4c-0.2,0.2-0.4,0.5-0.4,0.8
	s0.1,0.6,0.4,0.8c0.2,0.2,0.5,0.4,0.8,0.4h2.4c0.3,0,0.6-0.1,0.8-0.4c0.2-0.2,0.4-0.5,0.4-0.8s-0.1-0.6-0.4-0.8
	c-0.2-0.2-0.5-0.4-0.8-0.4H6z M21.6,15.8v-0.2c0-1-0.4-1.9-1.1-2.5C19.9,12.4,19,12,18,12s-1.9,0.4-2.5,1.1
	c-0.7,0.7-1.1,1.6-1.1,2.5v0.2c-0.7,0.2-1.3,0.7-1.7,1.3c-0.4,0.6-0.7,1.3-0.7,2.1v1.2c0,1,0.4,1.9,1.1,2.5c0.7,0.7,1.6,1.1,2.5,1.1
	h4.8c1,0,1.9-0.4,2.5-1.1c0.7-0.7,1.1-1.6,1.1-2.5v-1.2c0-0.7-0.2-1.5-0.7-2.1C22.9,16.5,22.3,16.1,21.6,15.8z M18,14.4
	c0.3,0,0.6,0.1,0.8,0.4s0.4,0.5,0.4,0.8h-2.4c0-0.3,0.1-0.6,0.4-0.8S17.7,14.4,18,14.4z M21.6,20.4c0,0.3-0.1,0.6-0.4,0.8
	s-0.5,0.4-0.8,0.4h-4.8c-0.3,0-0.6-0.1-0.8-0.4s-0.4-0.5-0.4-0.8v-1.2c0-0.3,0.1-0.6,0.4-0.8s0.5-0.4,0.8-0.4h4.8
	c0.3,0,0.6,0.1,0.8,0.4s0.4,0.5,0.4,0.8V20.4z"/>
</svg>
