<?xml version="1.0" encoding="utf-8"?>
<!-- Generator: Adobe Illustrator 24.3.0, SVG Export Plug-In . SVG Version: 6.00 Build 0)  -->
<svg version="1.1" id="Layer_1" xmlns="http://www.w3.org/2000/svg" xmlns:xlink="http://www.w3.org/1999/xlink" x="0px" y="0px"
	 viewBox="0 0 24 30" style="enable-background:new 0 0 24 30;" xml:space="preserve">
<style type="text/css">
	.st0{fill-rule:evenodd;clip-rule:evenodd;fill:#28A5C8;}
</style>
<path class="st0" d="M12,0c0.3,0,0.7,0.2,0.9,0.5L21,13.5c0.2,0.3,0.2,0.6,0.1,0.9c0,0,0,0,0,0.1c-0.1,0.2-0.3,0.4-0.4,0.5l-8.5,4.6
	c-0.3,0.2-0.7,0.2-1,0L3.3,15c-0.2-0.1-0.3-0.3-0.4-0.5c0,0,0,0,0-0.1c-0.1-0.3-0.1-0.6,0.1-0.9l8.1-13.1C11.3,0.2,11.7,0,12,0z
	 M12,2.9l5.6,9l-4.9-2.1l-0.2-0.1h-0.2h-0.6h-0.2l-0.2,0.1l-4.9,2.1L12,2.9z M11.7,17.5l-5.6-3.3l5.8-2.5h0.2l5.7,2.4L11.7,17.5z
	 M4.4,16.3C4.1,15.8,3.4,15.7,3,16c-0.5,0.3-0.6,0.9-0.3,1.4l8.5,12.2c0.2,0.3,0.5,0.4,0.8,0.4c0.3,0,0.6-0.2,0.8-0.4l8.5-12.2
	c0.3-0.5,0.2-1.1-0.3-1.4c-0.5-0.3-1.1-0.2-1.4,0.3l-7.6,11L4.4,16.3z"/>
</svg>
