<svg id="Layer_2" data-name="Layer 2" xmlns="http://www.w3.org/2000/svg" viewBox="0 0 255.12 170.08"><defs><style>.cls-1{fill:#80cdea;}.cls-2{fill:#fff;}</style></defs><rect class="cls-1" x="89.3" y="82.7" width="74.23" height="4"/><rect class="cls-1" x="113.99" y="73.65" width="4" height="75.47" transform="translate(-44.79 114.64) rotate(-45)"/><rect class="cls-1" x="78.43" y="56.21" width="74.28" height="4" transform="translate(-7.31 98.77) rotate(-45)"/><circle class="cls-2" cx="89.3" cy="84.7" r="15.76"/><path class="cls-2" d="M171.57,94.7a10,10,0,1,1,10-10A10,10,0,0,1,171.57,94.7Zm0-17a7,7,0,1,0,7,7A7,7,0,0,0,171.57,77.7Z"/><path class="cls-2" d="M147.61,36.3a10,10,0,0,1-7.07-17.07h0a10,10,0,1,1,7.07,17.07Zm0-17a7,7,0,0,0-5,2.05h0a7,7,0,0,0,0,9.9,7,7,0,0,0,9.9,0,7,7,0,0,0-4.95-11.95Z"/><path class="cls-2" d="M148.06,153.78a10,10,0,1,1,7.07-17.07h0a10,10,0,0,1-7.07,17.07Zm0-17a7,7,0,1,0,4.95,2.05h0A6.92,6.92,0,0,0,148.06,136.78Z"/></svg>