<?xml version="1.0" encoding="UTF-8"?>
<svg width="125px" height="125px" viewBox="0 0 125 125" version="1.1" xmlns="http://www.w3.org/2000/svg" xmlns:xlink="http://www.w3.org/1999/xlink">
    <!-- Generator: Sketch 62 (91390) - https://sketch.com -->
    <title>Check</title>
    <desc>Created with Sketch.</desc>
    <defs>
        <polygon id="path-1" points="0 0 76 0 76 55 0 55"></polygon>
    </defs>
    <g id="Page-1" stroke="none" stroke-width="1" fill="none" fill-rule="evenodd">
        <g id="Step-4" transform="translate(-658.000000, -480.000000)">
            <g id="Check" transform="translate(658.000000, 480.000000)">
                <circle id="Oval" fill="#1E96C8" cx="62.5" cy="62.5" r="62.5"></circle>
                <g id="Group-3" transform="translate(25.000000, 35.000000)">
                    <mask id="mask-2" fill="white">
                        <use xlink:href="#path-1"></use>
                    </mask>
                    <g id="Clip-2"></g>
                    <path d="M27.0651706,40.3701221 C33.2283574,34.1815521 39.1888108,28.1806949 45.1671524,22.1976933 C51.908267,15.4510212 58.6516749,8.7075539 65.4221445,1.99109894 C67.5985471,-0.16759807 70.5872592,-0.58560239 72.956763,0.808508405 C75.35975,2.22230615 76.6000013,5.0595162 75.7133867,7.67330225 C75.3391097,8.77851849 74.6111959,9.86633696 73.7800807,10.6995986 C59.829088,24.6892372 45.8455295,38.6468272 31.8454588,52.5879351 C28.5930098,55.8262096 25.3313873,55.7941611 22.0688475,52.5503926 C15.3593814,45.8792634 8.64945657,39.2081342 1.99732455,32.4806912 C-0.246961594,30.2102822 -0.551979024,27.6642559 0.841469026,25.1791217 C2.16611615,22.8162298 4.8374267,21.4491314 7.42709349,22.2595012 C8.87374758,22.7123011 10.2740757,23.7076366 11.3808533,24.78172 C16.5780751,29.8261577 21.6661327,34.9827652 27.0651706,40.3701221" id="Fill-1" fill="#FFFFFF" mask="url(#mask-2)"></path>
                </g>
            </g>
        </g>
    </g>
</svg>