<svg id="Layer_1" data-name="Layer 1" xmlns="http://www.w3.org/2000/svg" viewBox="0 0 411 411"><defs><style>.cls-1{fill:#28a5c8;}</style></defs><title>info</title><circle class="cls-1" cx="207" cy="121" r="20"/><path class="cls-1" d="M240.5,20C127,20,35,112,35,225.5S127,431,240.5,431,446,339,446,225.5,354,20,240.5,20Zm0,396C135.29,416,50,330.71,50,225.5S135.29,35,240.5,35,431,120.29,431,225.5,345.71,416,240.5,416Z" transform="translate(-35 -20)"/><rect class="cls-1" x="195.5" y="158" width="25" height="151" rx="7"/><rect class="cls-1" x="229.5" y="296.5" width="25" height="40" rx="7" transform="translate(523.5 54.5) rotate(90)"/><rect class="cls-1" x="226" y="174" width="25" height="33" rx="7" transform="translate(394 -68) rotate(90)"/></svg>