<?xml version="1.0" encoding="UTF-8"?>
<svg width="30px" height="30px" viewBox="0 0 30 30" version="1.1" xmlns="http://www.w3.org/2000/svg" xmlns:xlink="http://www.w3.org/1999/xlink">
    <!-- Generator: sketchtool 53.2 (72643) - https://sketchapp.com -->
    <title>EC60CBEA-7630-4755-8A98-3E3E922315D7</title>
    <desc>Created with sketchtool.</desc>
    <g id="Layouts" stroke="none" stroke-width="1" fill="none" fill-rule="evenodd">
        <g id="Open-channel-2" transform="translate(-940.000000, -351.000000)">
            <g id="Icons/Warming/Grey/Tiny" transform="translate(940.000000, 351.000000)">
                <circle id="Oval-2" fill="#1E1E21" cx="15" cy="15" r="15"></circle>
                <path d="M16.625,19 L13.359375,19 L13,7 L17,7 L16.625,19 Z M13,22.5172414 C13,22.0804576 13.1787422,21.7183922 13.5362319,21.4310345 C13.8937216,21.1436767 14.3816394,21 15,21 C15.6183606,21 16.1062784,21.1436767 16.4637681,21.4310345 C16.8212578,21.7183922 17,22.0804576 17,22.5172414 C17,22.9386994 16.8260887,23.2911863 16.4782609,23.5747126 C16.130433,23.858239 15.6376843,24 15,24 C14.3623157,24 13.869567,23.858239 13.5217391,23.5747126 C13.1739113,23.2911863 13,22.9386994 13,22.5172414 Z" id="!" fill="#E4E4E4" fill-rule="nonzero" transform="translate(15.000000, 15.500000) scale(-1, 1) translate(-15.000000, -15.500000) "></path>
            </g>
        </g>
    </g>
</svg>