<svg width="25" height="24" viewBox="0 0 25 24" fill="none" xmlns="http://www.w3.org/2000/svg">
<path fill-rule="evenodd" clip-rule="evenodd" d="M2.84667 5C1.74884 5 1 5.74354 1 6.5V14.5C1 15.2565 1.74884 16 2.84667 16H19.2733C20.3712 16 21.12 15.2565 21.12 14.5V12C21.12 11.7239 21.3439 11.5 21.62 11.5C21.8961 11.5 22.12 11.7239 22.12 12V14.5C22.12 15.9527 20.7676 17 19.2733 17H2.84667C1.35244 17 0 15.9527 0 14.5V6.5C0 5.04732 1.35244 4 2.84667 4H13.5133C13.7895 4 14.0133 4.22386 14.0133 4.5C14.0133 4.77614 13.7895 5 13.5133 5H2.84667Z" fill="#7F878D"/>
<path fill-rule="evenodd" clip-rule="evenodd" d="M17.78 9C18.0561 9 18.28 9.22386 18.28 9.5V11.5C18.28 11.7761 18.0561 12 17.78 12C17.5039 12 17.28 11.7761 17.28 11.5V9.5C17.28 9.22386 17.5039 9 17.78 9Z" fill="#7F878D"/>
<path fill-rule="evenodd" clip-rule="evenodd" d="M4.34 9C4.61614 9 4.84 9.22386 4.84 9.5V11.5C4.84 11.7761 4.61614 12 4.34 12C4.06385 12 3.84 11.7761 3.84 11.5V9.5C3.84 9.22386 4.06385 9 4.34 9Z" fill="#7F878D"/>
<path d="M13.94 10.5C13.94 12.1569 12.6506 13.5 11.06 13.5C9.46941 13.5 8.17999 12.1569 8.17999 10.5C8.17999 8.84315 9.46941 7.5 11.06 7.5C12.6506 7.5 13.94 8.84315 13.94 10.5Z" fill="#7F878D"/>
<path fill-rule="evenodd" clip-rule="evenodd" d="M24.5 13.5C24.7761 13.5 25 13.7239 25 14V15.5C25 17.9853 22.9853 20 20.5 20H4.82001C4.54386 20 4.32001 19.7761 4.32001 19.5C4.32001 19.2239 4.54386 19 4.82001 19H20.5C22.433 19 24 17.433 24 15.5V14C24 13.7239 24.2239 13.5 24.5 13.5Z" fill="#7F878D"/>
<path fill-rule="evenodd" clip-rule="evenodd" d="M24.2188 2.79289C24.5937 3.18342 24.5937 3.81658 24.2188 4.20711L20.3788 8.20711C20.0039 8.59763 19.3961 8.59763 19.0212 8.20711L17.1012 6.20711C16.7263 5.81658 16.7263 5.18342 17.1012 4.79289C17.4761 4.40237 18.0839 4.40237 18.4588 4.79289L19.7 6.08579L22.8612 2.79289C23.2361 2.40237 23.8439 2.40237 24.2188 2.79289Z" fill="#7F878D"/>
</svg>
