<svg xmlns="http://www.w3.org/2000/svg" viewBox="0 0 25 25"><defs><style>.cls-1{fill:#7f878d;}</style></defs><g id="state_backup" data-name="state backup"><path id="pointers" class="cls-1" d="M15.71,15.85,12.81,13V7.63a.69.69,0,1,0-1.38,0V13.2a.65.65,0,0,0,.2.52l3.1,3.1a.67.67,0,0,0,.49.21.7.7,0,0,0,.49-1.18Z"/><g id="circle"><path class="cls-1" d="M12.57,21.5a8.94,8.94,0,0,1-7.18-3.57.69.69,0,1,1,1.1-.84A7.62,7.62,0,1,0,12.57,4.88,7.67,7.67,0,0,0,5.44,9.81a.69.69,0,0,1-1.29-.49A9,9,0,1,1,12.57,21.5Z"/><polygon class="cls-1" points="4.88 14.92 8.07 9.38 1.68 9.38 4.88 14.92"/></g></g></svg>