<svg id="Layer_2" data-name="Layer 2" xmlns="http://www.w3.org/2000/svg" viewBox="0 0 255.12 170.08"><defs><style>.cls-1{fill:#80cdea;}.cls-2{fill:#fff;}</style></defs><rect class="cls-1" x="124.98" y="55.84" width="4" height="59.56" transform="translate(-23.35 114.86) rotate(-45)"/><rect class="cls-1" x="76.26" y="82.94" width="101.74" height="4" transform="translate(-0.19 0.28) rotate(-0.13)"/><rect class="cls-1" x="98.45" y="83.62" width="57.06" height="4" transform="translate(-23.35 114.86) rotate(-45)"/><rect class="cls-1" x="124.87" y="34.6" width="4" height="99.46" transform="translate(-0.17 0.26) rotate(-0.12)"/><path class="cls-2" d="M68.61,95a10,10,0,1,1,10-10A10,10,0,0,1,68.61,95Zm0-17a7,7,0,1,0,7,7A7,7,0,0,0,68.61,78Z"/><path class="cls-2" d="M100.64,121.81a10,10,0,1,1,7.07-2.93A10,10,0,0,1,100.64,121.81Zm0-17a7,7,0,1,0,5,2A7,7,0,0,0,100.64,104.81Z"/><path class="cls-2" d="M153.16,121.81a10,10,0,1,1,7.08-2.93A10,10,0,0,1,153.16,121.81Zm0-17a7,7,0,0,0-4.95,12,7,7,0,1,0,4.95-12Z"/><path class="cls-2" d="M153.16,69.28a10,10,0,1,1,7.08-2.92A10,10,0,0,1,153.16,69.28Zm0-17a7,7,0,1,0,5,2A7,7,0,0,0,153.16,52.28Z"/><path class="cls-2" d="M100.64,69.28a10,10,0,0,1-7.08-2.92h0a10,10,0,1,1,7.08,2.92Zm-5-5a7,7,0,1,0,0-9.91,7,7,0,0,0,0,9.91Z"/><path class="cls-2" d="M127,154a10,10,0,1,1,10-10A10,10,0,0,1,127,154Zm0-17a7,7,0,1,0,7,7A7,7,0,0,0,127,137Z"/><path class="cls-2" d="M186.5,95a10,10,0,1,1,10-10A10,10,0,0,1,186.5,95Zm0-17a7,7,0,1,0,7,7A7,7,0,0,0,186.5,78Z"/><path class="cls-2" d="M127,36.1a10,10,0,1,1,10-10A10,10,0,0,1,127,36.1Zm0-17a7,7,0,1,0,7,7A7,7,0,0,0,127,19.09Z"/><circle class="cls-2" cx="126.98" cy="85.04" r="14.76"/></svg>