<?xml version="1.0" encoding="utf-8"?>
<!-- Generator: Adobe Illustrator 25.0.1, SVG Export Plug-In . SVG Version: 6.00 Build 0)  -->
<svg version="1.1" id="Layer_2_1_" xmlns="http://www.w3.org/2000/svg" xmlns:xlink="http://www.w3.org/1999/xlink" x="0px" y="0px"
	 viewBox="0 0 255.1 170.1" style="enable-background:new 0 0 255.1 170.1;" xml:space="preserve">
<style type="text/css">
	.st0{fill:#FFFFFF;}
	.st1{fill:#80CDEA;}
	.st2{fill:#202021;}
	.st3{opacity:0.7;fill:#80CDEA;enable-background:new    ;}
	.st4{opacity:0.3;fill:#80CDEA;enable-background:new    ;}
	.st5{fill:#4F8899;}
</style>
<path class="st0" d="M127.2,59.1c-5.8,0-10.6-4.7-10.6-10.6c0-5.8,4.7-10.6,10.6-10.6c5.8,0,10.6,4.7,10.6,10.6c0,0,0,0,0,0
	C137.8,54.4,133,59.1,127.2,59.1z M127.2,41.6c-3.8,0-6.9,3.1-6.9,6.9c0,3.8,3.1,6.9,6.9,6.9c3.8,0,6.9-3.1,6.9-6.9
	C134.1,44.7,131,41.6,127.2,41.6L127.2,41.6z"/>
<path class="st0" d="M228.8,132.2c-5.9,0-11.1-3.6-13.2-9.1l0,0c-2.7-7.3,0.9-15.4,8.2-18.1c7.3-2.7,15.4,0.9,18.1,8.2
	c2.7,7.3-0.9,15.4-8.2,18.1C232.2,131.9,230.5,132.2,228.8,132.2L228.8,132.2z M219.1,121.8c2,5.4,8,8.1,13.4,6
	c2.6-1,4.7-2.9,5.8-5.5c2.4-5.2,0-11.4-5.2-13.7c-5.2-2.4-11.4,0-13.7,5.2C218.2,116.3,218.1,119.2,219.1,121.8z"/>
<path class="st0" d="M37,112.8c-2.9-6.5-10.6-9.5-17.1-6.5c-6.5,2.9-9.5,10.6-6.5,17.1c2.9,6.5,10.6,9.5,17.1,6.5
	c3.2-1.4,5.6-4,6.8-7.3C38.5,119.5,38.4,115.9,37,112.8z"/>
<path class="st0" d="M104.6,63.8c-0.5-0.7-0.3-1.6,0.4-2.1c0,0,0,0,0,0l0,0c0.7-0.5,1.7-0.3,2.1,0.4c0,0,0,0,0,0l0,0
	c0.5,0.7,0.3,1.7-0.4,2.1l0,0c-0.3,0.2-0.6,0.3-0.9,0.3l0,0C105.3,64.5,104.8,64.3,104.6,63.8z M147.6,64.2
	c-0.7-0.5-0.9-1.4-0.4-2.1c0,0,0,0,0,0l0,0c0.5-0.7,1.4-0.9,2.1-0.4c0,0,0,0,0,0l0,0c0.7,0.5,0.9,1.4,0.4,2.1c0,0,0,0,0,0l0,0
	c-0.3,0.4-0.7,0.7-1.2,0.7l0,0C148.2,64.4,147.9,64.3,147.6,64.2z M111.7,59c-0.5-0.7-0.3-1.6,0.4-2.1c0,0,0,0,0,0l0,0
	c0.7-0.5,1.6-0.3,2.1,0.4c0,0,0,0,0,0l0,0c0.5,0.7,0.3,1.6-0.4,2.1c0,0,0,0,0,0l0,0c-0.3,0.2-0.6,0.3-0.9,0.3l0,0
	C112.4,59.6,111.9,59.4,111.7,59z M140.5,59.3c-0.7-0.5-0.9-1.4-0.4-2.1c0,0,0,0,0,0l0,0c0.5-0.7,1.4-0.9,2.1-0.4c0,0,0,0,0,0l0,0
	c0.7,0.5,0.9,1.4,0.4,2.1c0,0,0,0,0,0l0,0c-0.3,0.4-0.7,0.7-1.2,0.7l0,0C141.1,59.5,140.8,59.4,140.5,59.3z M118.8,54.1
	c-0.5-0.7-0.3-1.7,0.4-2.1l0,0c0.7-0.5,1.7-0.3,2.1,0.4c0,0,0,0,0,0l0,0c0.5,0.7,0.3,1.7-0.4,2.1c0,0,0,0,0,0l0,0
	c-0.3,0.2-0.6,0.3-0.9,0.3l0,0C119.5,54.7,119.1,54.5,118.8,54.1z M133.4,54.4c-0.7-0.5-0.9-1.4-0.4-2.1c0,0,0,0,0,0l0,0
	c0.5-0.7,1.4-0.9,2.1-0.4l0,0c0.7,0.5,0.9,1.4,0.4,2.1c0,0,0,0,0,0l0,0c-0.3,0.4-0.7,0.7-1.2,0.7l0,0
	C134,54.7,133.7,54.6,133.4,54.4z M125.9,49.2c-0.5-0.7-0.3-1.7,0.4-2.1c0,0,0,0,0,0l0,0c0.7-0.5,1.7-0.3,2.1,0.4c0,0,0,0,0,0l0,0
	c0.5,0.7,0.3,1.7-0.4,2.1c0,0,0,0,0,0l0,0c-0.3,0.2-0.6,0.3-0.9,0.3l0,0C126.6,49.8,126.2,49.6,125.9,49.2z"/>
<path class="st1" d="M82.8,78.8c0.6,0.9,1,2,1.2,3.1c0.3,0.1,0.6,0.2,0.9,0.3c1.5,0.3,3,0,4.3-0.9c2.6-1.8,3.3-5.3,1.5-7.9
	c-0.8-1.2-2.1-2.1-3.6-2.4c-0.4-0.1-0.7-0.1-1.1-0.1c-2.7,0-5,1.9-5.6,4.6c0,0.3-0.1,0.6-0.1,1C81.3,77.1,82.1,77.9,82.8,78.8z"/>
<path class="st1" d="M62.3,85.9c-2.6,1.7-3.4,5.3-1.6,7.9c1.7,2.6,5.3,3.4,7.9,1.6c1.8-1.2,2.8-3.4,2.5-5.6
	c-0.7-0.5-1.3-1.2-1.8-1.9c-0.5-0.7-0.9-1.5-1.1-2.3C66.4,84.6,64,84.7,62.3,85.9z"/>
<path class="st1" d="M101.3,66.3c-3.1-4.6-8.6-7.7-12.8-4.7L42.3,93c1.1-0.7,2.4-1.1,3.7-1c0.6,0,1.2,0.1,1.8,0.3
	c0.4,0.1,0.8,0.2,1.1,0.4c2.5,1.1,4.6,2.8,6.1,5.1c1.8,2.5,2.7,5.6,2.5,8.6c-0.1,0.6-0.2,1.2-0.4,1.8c-0.4,1.2-1.2,2.3-2.3,3.1
	l46.2-31.4C105.3,76.7,104.2,70.6,101.3,66.3z M60.9,83.8c1.8-1.2,4-1.7,6.2-1.2c0.3,0,0.6,0.1,0.9,0.2c0-0.3,0.1-0.6,0.1-0.9
	c0.8-4.4,5-7.3,9.5-6.5l0.4,0.1c0-0.1,0-0.3,0.1-0.4c0.8-4.4,5.1-7.3,9.5-6.5c4.4,0.8,7.3,5.1,6.5,9.5c-0.7,3.9-4.1,6.6-8,6.6
	c-0.5,0-1,0-1.5-0.1l-0.4-0.1c0,0.1,0,0.3,0,0.4c-0.8,4.4-5.1,7.3-9.5,6.5c0,0,0,0-0.1,0c-0.3-0.1-0.6-0.1-0.9-0.2
	c0,0.3-0.1,0.6-0.1,0.9c-0.7,3.8-4.1,6.6-8,6.6c-4.5,0-8.1-3.6-8.1-8.1C57.4,87.9,58.7,85.4,60.9,83.8L60.9,83.8z"/>
<polygon class="st2" points="54,110.2 54,110.2 54,110.2 "/>
<path class="st3" d="M71.1,91.6c-0.6,3.1-3.5,5.1-6.6,4.5c-3.1-0.6-5.1-3.5-4.5-6.6c0.3-1.5,1.1-2.8,2.4-3.6
	c1.8-1.2,4.1-1.3,5.9-0.3c-0.3-0.9-0.4-1.9-0.3-2.8c-0.3-0.1-0.6-0.2-0.9-0.2c-4.4-0.8-8.7,2.1-9.5,6.5c-0.8,4.4,2.1,8.7,6.5,9.5
	c4.4,0.8,8.7-2.1,9.5-6.5c0.1-0.3,0.1-0.6,0.1-0.9c-0.9-0.3-1.7-0.7-2.5-1.2C71.2,90.5,71.2,91.1,71.1,91.6z"/>
<path class="st1" d="M79.3,81.2c-0.6-0.9-1-2-1.2-3.1c-0.3-0.1-0.6-0.2-0.9-0.3c-0.4-0.1-0.7-0.1-1.1-0.1c-3.2,0.1-5.7,2.7-5.6,5.8
	c0,1.1,0.3,2.2,1,3.1c0.5,0.7,1.2,1.3,2,1.8c2.7,1.5,6.2,0.5,7.7-2.2c0.3-0.5,0.5-1.1,0.6-1.7c0.1-0.3,0.1-0.6,0.1-1
	C80.8,82.9,79.9,82.1,79.3,81.2z"/>
<path class="st4" d="M82.8,78.8c-0.7-0.9-1.5-1.7-2.5-2.3c0,0.6,0.1,1.2,0.3,1.8c0.2,0.5,0.4,1.1,0.7,1.5c0.3,0.5,0.8,0.9,1.2,1.2
	c0.5,0.4,1,0.7,1.5,0.9C83.8,80.8,83.4,79.8,82.8,78.8z"/>
<path class="st4" d="M82.9,84.1c-0.4-0.2-0.8-0.4-1.2-0.6c0,0.3,0,0.6-0.1,1c-0.5,3-3.4,5.1-6.5,4.5c-0.6-0.1-1.3-0.3-1.8-0.7
	c-0.8-0.4-1.4-1-1.9-1.8c-0.5-0.7-0.8-1.6-0.9-2.5c-0.4-3.1,1.8-5.9,4.8-6.3c0.2,0,0.5,0,0.7-0.1c0.4,0,0.7,0,1.1,0.1
	c0.3,0.1,0.6,0.2,0.9,0.3c-0.1-0.4-0.1-0.9-0.1-1.3c0-0.4,0-0.8,0.1-1.2l-0.4-0.1c-4.4-0.8-8.7,2.1-9.5,6.5
	c-0.1,0.3-0.1,0.6-0.1,0.9c-0.1,1,0,1.9,0.3,2.8c0.2,0.8,0.6,1.6,1.1,2.3c0.5,0.7,1.1,1.3,1.8,1.9c0.7,0.5,1.6,1,2.5,1.2
	c0.3,0.1,0.6,0.2,0.9,0.2c4.4,0.8,8.7-2,9.5-6.4c0,0,0,0,0,0c0-0.1,0-0.3,0-0.4C83.6,84.3,83.2,84.2,82.9,84.1z"/>
<path class="st1" d="M183.4,90.7c0,1.8,0.9,3.6,2.5,4.6c2.5,1.9,6.1,1.3,7.9-1.2s1.3-6.1-1.2-7.9c-0.1-0.1-0.3-0.2-0.4-0.3
	c-0.9-0.6-2-1-3.2-1c-0.7,0-1.3,0.1-2,0.4C186.7,87.5,185.4,89.5,183.4,90.7L183.4,90.7z"/>
<path class="st1" d="M174.2,77.3c0.3-2.1-0.7-4.2-2.5-5.4c-0.9-0.6-2-1-3.2-1c-0.4,0-0.7,0-1.1,0.1c-3.1,0.6-5.1,3.5-4.6,6.6
	c0.6,3.1,3.5,5.1,6.6,4.6c0.6-0.1,1.2-0.3,1.8-0.6c0.2-0.8,0.6-1.6,1.1-2.3C172.9,78.5,173.5,77.8,174.2,77.3z"/>
<path class="st1" d="M165.5,61.6c-2.2-1.4-4.9-1.5-7.2-0.3c-4.5,2.4-7.5,6.7-8.2,11.7c-0.3,2.6,0.8,5.2,3,6.7l46.1,31.4
	c-1.1-0.7-1.9-1.8-2.3-3.1c-0.2-0.6-0.3-1.2-0.4-1.8c-0.2-3.1,0.6-6.1,2.5-8.6c1.5-2.2,3.6-4,6.1-5.1c0.4-0.1,0.7-0.3,1.1-0.4
	c0.6-0.2,1.2-0.2,1.8-0.3c1.3-0.1,2.6,0.3,3.7,1L165.5,61.6z M195.8,95.2c-2.5,3.7-7.6,4.7-11.3,2.2c-1.9-1.3-3.2-3.4-3.5-5.7
	c-0.6,0.2-1.3,0.2-1.9,0.2c-3.9,0-7.2-2.8-8-6.6c-0.1-0.3-0.1-0.6-0.1-0.9c-0.3,0.1-0.6,0.2-0.9,0.2c-0.5,0.1-1,0.1-1.5,0.1
	c-4.5,0-8.1-3.6-8.1-8.1c0-4.5,3.6-8.1,8.1-8.1c4.3,0,7.8,3.3,8.1,7.6c0.3-0.1,0.6-0.2,0.9-0.2c4.4-0.8,8.7,2,9.5,6.4
	c0,0.2,0.1,0.3,0.1,0.5c4.4-1.1,8.7,1.6,9.8,5.9C197.5,90.9,197.1,93.3,195.8,95.2L195.8,95.2z"/>
<path class="st5" d="M48,94.9c-0.7-0.3-1.5-0.4-2.2-0.5c-0.7,0-1.5,0.2-2.1,0.6l0,0c-1.2,1-1.9,2.5-1.7,4c0.1,2.2,0.8,4.3,2.1,6.1
	c2.6,3.8,6.8,5.7,9.3,4l0,0c2.5-1.6,2.3-6.3-0.3-10.1C51.7,97.2,50,95.8,48,94.9z"/>
<path class="st5" d="M210.3,95L210.3,95c-1.3-0.8-3-0.8-4.3-0.1c-2,0.9-3.7,2.3-4.9,4.2c-2.6,3.8-2.7,8.4-0.3,10.1l0,0
	c1.3,0.8,3,0.8,4.3,0.1c4.1-1.8,6.8-5.8,7-10.3C212.2,97.5,211.5,96,210.3,95z"/>
<polygon class="st2" points="210.3,95 210.3,95 210.3,95 "/>
<path class="st3" d="M161.9,72c-2.5,3.7-1.6,8.8,2.1,11.3c1.4,0.9,2.9,1.4,4.6,1.4c0.5,0,1,0,1.5-0.1c0.3-0.1,0.6-0.1,0.9-0.2
	c-0.1-0.9,0-1.9,0.2-2.8c-1.9,1.1-4.2,1-5.9-0.3c-1.2-0.8-2.1-2.1-2.4-3.6c-0.6-3.1,1.5-6.1,4.6-6.6c0,0,0,0,0,0
	c0.4-0.1,0.7-0.1,1.1-0.1c1.1,0,2.2,0.3,3.2,1c1.8,1.2,2.7,3.3,2.5,5.4c0.7-0.5,1.6-1,2.5-1.2c-0.3-4.5-4.2-7.8-8.7-7.5
	C165.6,68.8,163.3,70.1,161.9,72L161.9,72z"/>
<path class="st1" d="M182.4,79.1c-2.6-1.7-6.1-1.1-7.9,1.5c-0.5,0.7-0.8,1.6-0.9,2.5c-0.1,0.6-0.1,1.2,0,1.8
	c0.3,1.5,1.1,2.8,2.4,3.6c1.5,1,3.4,1.3,5.2,0.6c0.4-2.2,1.8-4.2,3.7-5.4C184.8,81.8,183.9,80.1,182.4,79.1z"/>
<path class="st4" d="M185.6,86.1c-0.9,0.7-1.6,1.7-1.9,2.8c-0.2,0.6-0.3,1.2-0.3,1.8c1.9-1.2,3.3-3.2,3.7-5.4
	C186.6,85.5,186.1,85.8,185.6,86.1z"/>
<path class="st4" d="M183.7,77.1c-1.8-1.2-4-1.7-6.2-1.2c-0.3,0.1-0.6,0.1-0.9,0.2c-0.9,0.3-1.7,0.7-2.5,1.2
	c-0.7,0.5-1.3,1.2-1.8,1.9c-0.5,0.7-0.9,1.5-1.1,2.3c-0.3,0.9-0.4,1.9-0.3,2.8c0,0.3,0,0.6,0.1,0.9c0.7,3.8,4.1,6.6,8,6.6
	c0.7,0,1.3-0.1,1.9-0.2c-0.1-0.4-0.1-0.8-0.1-1.2c0-0.4,0.1-0.9,0.1-1.3c-1.7,0.6-3.6,0.4-5.2-0.6c-1.2-0.8-2.1-2.1-2.4-3.6
	c-0.1-0.6-0.1-1.2,0-1.8c0.1-0.9,0.4-1.7,0.9-2.5c1.8-2.6,5.3-3.3,7.9-1.5c0,0,0,0,0,0c1.5,1,2.4,2.7,2.5,4.6
	c0.4-0.2,0.8-0.4,1.2-0.6c0.4-0.2,0.8-0.3,1.2-0.4C187,80.4,185.6,78.3,183.7,77.1z"/>
<path class="st0" d="M38.3,109.3c-0.5-0.7-0.3-1.7,0.4-2.1c0,0,0,0,0,0l0,0c0.7-0.5,1.7-0.3,2.1,0.4c0,0,0,0,0,0l0,0
	c0.5,0.7,0.3,1.7-0.4,2.1c0,0,0,0,0,0l0,0c-0.3,0.2-0.6,0.3-0.9,0.3l0,0C39.1,110,38.6,109.7,38.3,109.3z M45.4,104.4
	c-0.5-0.7-0.3-1.7,0.4-2.1c0,0,0,0,0,0l0,0c0.7-0.5,1.7-0.3,2.1,0.4c0,0,0,0,0,0l0,0c0.5,0.7,0.3,1.7-0.4,2.1c0,0,0,0,0,0l0,0
	c-0.3,0.2-0.6,0.3-0.9,0.3l0,0C46.2,105.1,45.8,104.8,45.4,104.4L45.4,104.4z"/>
<path class="st0" d="M228.7,119.7c-0.1,0-0.2,0-0.3,0l-0.3-0.1c-0.1,0-0.2-0.1-0.3-0.1c-0.1,0-0.2-0.1-0.2-0.2
	c-0.1-0.1-0.1-0.2-0.2-0.2c-0.1-0.2-0.2-0.4-0.2-0.6c0-0.2,0-0.4,0-0.6c0-0.2,0.1-0.4,0.2-0.6c0.1-0.1,0.1-0.2,0.2-0.2
	c0.1-0.1,0.1-0.1,0.2-0.2c0.1-0.1,0.2-0.1,0.3-0.1c0.1,0,0.2-0.1,0.3-0.1c0.2,0,0.4,0,0.6,0c0.1,0,0.2,0,0.3,0.1l0.3,0.1l0.2,0.2
	c0.1,0.1,0.1,0.2,0.2,0.2c0.1,0.1,0.1,0.2,0.1,0.3c0,0.1,0.1,0.2,0.1,0.3c0,0.2,0,0.4,0,0.6c0,0.1-0.1,0.2-0.1,0.3
	c0,0.1-0.1,0.2-0.1,0.3c-0.1,0.1-0.1,0.2-0.2,0.2c-0.1,0.1-0.1,0.1-0.2,0.2c-0.1,0.1-0.2,0.1-0.3,0.1l-0.3,0.1
	C228.9,119.7,228.8,119.7,228.7,119.7z"/>
<path class="st0" d="M220.1,114.1c-0.7-0.5-0.9-1.4-0.4-2.1l0,0c0.5-0.7,1.4-0.9,2.1-0.4l0,0c0.7,0.5,0.9,1.4,0.4,2.1c0,0,0,0,0,0
	l0,0c-0.3,0.4-0.7,0.7-1.2,0.7l0,0C220.7,114.4,220.4,114.3,220.1,114.1z M212.3,108.7c-0.7-0.5-0.9-1.4-0.4-2.1c0,0,0,0,0,0l0,0
	c0.5-0.7,1.4-0.9,2.1-0.4c0,0,0,0,0,0l0,0c0.7,0.5,0.9,1.4,0.4,2.1l0,0c-0.3,0.4-0.7,0.7-1.2,0.7l0,0
	C212.9,109,212.6,108.9,212.3,108.7z"/>
<path class="st0" d="M205.5,103.6h-0.3l-0.3-0.1c-0.1,0-0.2-0.1-0.3-0.1c-0.1-0.1-0.2-0.1-0.2-0.2c-0.3-0.3-0.5-0.7-0.5-1.1
	c0-0.4,0.2-0.8,0.5-1.1l0.2-0.2c0.1-0.1,0.2-0.1,0.3-0.1l0.3-0.1c0.2,0,0.4,0,0.6,0l0.3,0.1c0.1,0,0.2,0.1,0.3,0.1l0.2,0.2
	c0.1,0.1,0.1,0.2,0.2,0.2c0.1,0.1,0.1,0.2,0.1,0.3c0,0.1,0.1,0.2,0.1,0.3c0,0.1,0,0.2,0,0.3c0,0.4-0.2,0.8-0.4,1.1
	c-0.1,0.1-0.2,0.1-0.2,0.2c-0.1,0.1-0.2,0.1-0.3,0.1l-0.3,0.1L205.5,103.6z"/>
</svg>
