<svg id="Layer_2" data-name="Layer 2" xmlns="http://www.w3.org/2000/svg" viewBox="0 0 255.12 170.08"><defs><style>.cls-1{fill:#fff;}.cls-2{fill:none;}.cls-3,.cls-5,.cls-6{fill:#80cdea;}.cls-4,.cls-7,.cls-8{fill:#202021;}.cls-4,.cls-6{opacity:0.3;}.cls-5{opacity:0.7;}.cls-7{opacity:0.6;}.cls-9{fill:#4f8899;}</style></defs><path class="cls-1" d="M208.09,64a10,10,0,0,1-3.41-19.41h0a10,10,0,1,1,6.84,18.8A10.12,10.12,0,0,1,208.09,64Zm-2.38-16.59a7,7,0,1,0,9,4.18,7,7,0,0,0-9-4.18Z"/><path class="cls-1" d="M181.44,65.18l-.24,0a1.09,1.09,0,0,1-.24-.07l-.21-.11a1,1,0,0,1-.19-.16,1.22,1.22,0,0,1-.37-.88,1.26,1.26,0,0,1,.37-.89,1,1,0,0,1,.19-.15.88.88,0,0,1,.21-.12l.24-.07a1.29,1.29,0,0,1,.48,0l.24.07a.88.88,0,0,1,.21.12,1,1,0,0,1,.19.15c.06.06.11.13.16.19a1.51,1.51,0,0,1,.11.22,1,1,0,0,1,.07.23,1.07,1.07,0,0,1,0,.25,1.22,1.22,0,0,1-.37.88,1,1,0,0,1-.19.16l-.21.11a1.09,1.09,0,0,1-.24.07A1,1,0,0,1,181.44,65.18Z"/><path class="cls-1" d="M186.94,61.93a1.24,1.24,0,0,1,.74-1.6h0a1.24,1.24,0,0,1,1.6.74h0a1.25,1.25,0,0,1-.74,1.61h0a1.29,1.29,0,0,1-.43.07h0A1.23,1.23,0,0,1,186.94,61.93Zm6.67-2.43a1.24,1.24,0,0,1,.74-1.6h0a1.25,1.25,0,0,1,1.61.74h0a1.27,1.27,0,0,1-.75,1.61h0a1.29,1.29,0,0,1-.43.07h0A1.23,1.23,0,0,1,193.61,59.5Z"/><path class="cls-1" d="M208.13,55.46a1.06,1.06,0,0,1-.25,0l-.23-.07a.94.94,0,0,1-.22-.12.9.9,0,0,1-.19-.15,1.39,1.39,0,0,1-.15-.19.94.94,0,0,1-.12-.22,1.55,1.55,0,0,1-.07-.23,1,1,0,0,1,0-.24,1,1,0,0,1,0-.25,1.55,1.55,0,0,1,.07-.23.94.94,0,0,1,.12-.22,1,1,0,0,1,.34-.34.94.94,0,0,1,.22-.12l.23-.07a1.27,1.27,0,0,1,1.13.34,1.46,1.46,0,0,1,.16.19,1.51,1.51,0,0,1,.11.22.88.88,0,0,1,.07.23,1,1,0,0,1,0,.25,1,1,0,0,1,0,.24.88.88,0,0,1-.07.23,1.51,1.51,0,0,1-.11.22,1.46,1.46,0,0,1-.16.19A1.27,1.27,0,0,1,208.13,55.46Z"/><polygon class="cls-2" points="88.93 88.12 88.93 88.12 88.93 88.12 88.93 88.12"/><path class="cls-2" d="M156.34,79.78a8.91,8.91,0,1,0-16.15-7.54,8.38,8.38,0,0,0-.44,1.18,7.23,7.23,0,0,0-.25,1,7.78,7.78,0,0,0-.14,1.17A8.93,8.93,0,0,0,141.7,82a8,8,0,0,0,.85.8,9.32,9.32,0,0,0,1.95,1.25,8.88,8.88,0,0,0,3.76.84,8.69,8.69,0,0,0,3.05-.55h0A8.83,8.83,0,0,0,156.34,79.78Zm-5.71,2.73a6.84,6.84,0,0,1-5.29-.24,7.17,7.17,0,0,1-1.55-1,6.53,6.53,0,0,1-1-1.08,6.91,6.91,0,0,1-1.32-5.35,6.91,6.91,0,0,1,.55-1.76,6.83,6.83,0,0,1,3.9-3.58,6.92,6.92,0,0,1,4.73,13Z"/><path class="cls-3" d="M130,88.33a9.88,9.88,0,0,1-.45,1.18,8.82,8.82,0,0,1-5,4.61l13.36-4.86a8.86,8.86,0,0,1-7.89-.93Z"/><path class="cls-3" d="M113.14,88.79a8.92,8.92,0,0,1,5.33-11.42h0L88.93,88.12h0A8.91,8.91,0,0,1,95,104.87l29.52-10.75a8.69,8.69,0,0,1-3,.54A8.93,8.93,0,0,1,113.14,88.79Z"/><path class="cls-3" d="M177.53,65.36A8.93,8.93,0,0,0,166.1,60L131.85,72.5a8.85,8.85,0,0,1,7.9.92,8.38,8.38,0,0,1,.44-1.18,8.91,8.91,0,1,1,11.12,12.14l20.89-7.6a8.92,8.92,0,0,0,5.33-11.42Z"/><path class="cls-3" d="M144.5,84.09a8.42,8.42,0,0,1-1.1-.62A8.92,8.92,0,0,1,138,89.25l13.36-4.87a8.69,8.69,0,0,1-3.05.55A8.88,8.88,0,0,1,144.5,84.09Z"/><polygon class="cls-4" points="124.56 94.12 124.56 94.12 124.56 94.12 124.56 94.12"/><polygon class="cls-4" points="118.47 77.37 118.47 77.37 118.47 77.37 118.47 77.37"/><path class="cls-5" d="M129.59,89.51a9.88,9.88,0,0,0,.45-1.18,9.06,9.06,0,0,1-1.71-1.45,6.91,6.91,0,1,1-9.18-7.63h0A6.92,6.92,0,0,1,126,80.48a8.54,8.54,0,0,1,.39-2.19,8.87,8.87,0,0,0-7.91-.92h0a8.92,8.92,0,0,0-5.33,11.42,8.93,8.93,0,0,0,8.39,5.87,8.69,8.69,0,0,0,3-.54h0A8.82,8.82,0,0,0,129.59,89.51Z"/><path class="cls-6" d="M141.45,74.85a6.92,6.92,0,0,0,1.32,5.35,6.53,6.53,0,0,0,1,1.08,8.81,8.81,0,0,0-2.34-6.43Z"/><polygon class="cls-7" points="131.84 72.5 131.84 72.5 131.85 72.5 131.84 72.5"/><polygon class="cls-7" points="137.94 89.25 137.95 89.25 137.93 89.25 137.94 89.25"/><path class="cls-6" d="M143.4,83.47a8.48,8.48,0,0,1-.85-.63,8,8,0,0,1-.85-.8,6.91,6.91,0,1,1-9.17-7.66h0a6.91,6.91,0,0,1,6.83,1.23,7.78,7.78,0,0,1,.14-1.17,7.23,7.23,0,0,1,.25-1,8.85,8.85,0,0,0-7.9-.92h0a8.88,8.88,0,0,0-5.46,5.79,8.54,8.54,0,0,0-.39,2.19,8.72,8.72,0,0,0,2.34,6.4A9.06,9.06,0,0,0,130,88.33a8.86,8.86,0,0,0,7.89.93h0A8.92,8.92,0,0,0,143.4,83.47Z"/><path class="cls-3" d="M119.15,79.25h0a6.92,6.92,0,1,0,9.18,7.63,8.72,8.72,0,0,1-2.34-6.4A6.92,6.92,0,0,0,119.15,79.25Z"/><path class="cls-5" d="M128.08,79.72a6.85,6.85,0,0,0,2.35,6.43,9,9,0,0,0-.54-3.46A8.88,8.88,0,0,0,128.08,79.72Z"/><path class="cls-3" d="M126.38,78.29a8.88,8.88,0,0,1,5.46-5.79h0l-13.37,4.87A8.87,8.87,0,0,1,126.38,78.29Z"/><path class="cls-3" d="M154.76,73.64a6.88,6.88,0,0,0-3.57-3.9,6.89,6.89,0,0,0-5.29-.23,6.83,6.83,0,0,0-3.9,3.58,6.91,6.91,0,0,0-.55,1.76,8.81,8.81,0,0,1,2.34,6.43,7.17,7.17,0,0,0,1.55,1,6.91,6.91,0,0,0,9.42-8.63Z"/><path class="cls-3" d="M132.53,74.38h0a6.91,6.91,0,0,0-4.45,5.34,8.88,8.88,0,0,1,1.81,3,9,9,0,0,1,.54,3.46A6.9,6.9,0,0,0,141.7,82a8.93,8.93,0,0,1-2.34-6.43A6.91,6.91,0,0,0,132.53,74.38Z"/><polygon class="cls-8" points="151.31 84.38 151.31 84.38 151.31 84.38 151.31 84.38"/><path class="cls-9" d="M98.48,94.13A6.93,6.93,0,0,0,92,89.58a6.93,6.93,0,0,0-2.37.42h0a6.92,6.92,0,0,0-4.14,8.86A6.92,6.92,0,0,0,94.35,103h0a6.91,6.91,0,0,0,4.13-8.86Z"/><polygon class="cls-8" points="89.62 90 89.62 90 89.62 90 89.62 90"/><path class="cls-1" d="M63.11,108.08a1.25,1.25,0,0,1,.71-1.62h0a1.26,1.26,0,0,1,1.62.71h0a1.25,1.25,0,0,1-.72,1.62h0a1.16,1.16,0,0,1-.45.08h0A1.24,1.24,0,0,1,63.11,108.08Zm6.52-2.54a1.25,1.25,0,0,1,.72-1.62h0a1.24,1.24,0,0,1,1.61.71h0a1.25,1.25,0,0,1-.71,1.62h0a1.2,1.2,0,0,1-.45.09h0A1.26,1.26,0,0,1,69.63,105.54ZM76.16,103a1.24,1.24,0,0,1,.71-1.61h0a1.25,1.25,0,0,1,1.62.71h0a1.25,1.25,0,0,1-.72,1.62h0a1.38,1.38,0,0,1-.45.08h0A1.24,1.24,0,0,1,76.16,103Zm6.52-2.53a1.25,1.25,0,0,1,.71-1.62h0a1.25,1.25,0,0,1,1.62.71h0a1.25,1.25,0,0,1-.71,1.62h0a1.2,1.2,0,0,1-.45.09h0A1.26,1.26,0,0,1,82.68,100.47Zm6.52-2.54a1.25,1.25,0,0,1,.72-1.62h0a1.26,1.26,0,0,1,1.62.72h0a1.24,1.24,0,0,1-.72,1.61h0a1.17,1.17,0,0,1-.45.09h0A1.26,1.26,0,0,1,89.2,97.93Z"/><path class="cls-1" d="M65.62,106.26a14.77,14.77,0,0,0-18.9-8.82h0a14.75,14.75,0,1,0,18.41,20.1A14.62,14.62,0,0,0,65.62,106.26Z"/></svg>