<svg id="Layer_2" data-name="Layer 2" xmlns="http://www.w3.org/2000/svg" viewBox="0 0 255.12 170.08"><defs><style>.cls-1{fill:#80cdea;}.cls-2{fill:#fff;}</style></defs><path class="cls-1" d="M52.67,58.57a5.81,5.81,0,0,1-3-.83v8.72h6v-8.7A6,6,0,0,1,52.67,58.57Z"/><path class="cls-2" d="M43.77,68.46V72.2c0,.12,0,.23.07.34a7.3,7.3,0,0,0,.93,2.34,9.6,9.6,0,0,0,15.78,0,7.3,7.3,0,0,0,.93-2.34l.09-.43V68.46Z"/><path class="cls-1" d="M198,58.57a5.81,5.81,0,0,1-3-.83v8.72h6v-8.7A6,6,0,0,1,198,58.57Z"/><path class="cls-2" d="M189.06,72.2c0,.12.05.23.07.34a7.3,7.3,0,0,0,.93,2.34,9.6,9.6,0,0,0,15.78,0,7.08,7.08,0,0,0,.93-2.34c0-.14.07-.29.09-.43V68.46h-17.8Z"/><path class="cls-1" d="M39.81,56.57a4,4,0,0,0,3.39-2h3.86a5.82,5.82,0,0,1,0-4H43.2a4,4,0,1,0-3.39,6Z"/><path class="cls-1" d="M58.27,54.62h3.86a4,4,0,1,0,0-4H58.27a5.82,5.82,0,0,1,0,4Z"/><path class="cls-1" d="M55.66,55.17a3.09,3.09,0,0,0,.4-.55h-.4Z"/><path class="cls-1" d="M49.27,54.62a5.3,5.3,0,0,0,.39.54v-.54Z"/><path class="cls-1" d="M56.06,50.59a3.71,3.71,0,0,0-.85-1,3.88,3.88,0,0,0-5.09,0,4.1,4.1,0,0,0-.85,1,3.85,3.85,0,0,0,0,4h.39v.54a5,5,0,0,0,.46.46,3.88,3.88,0,0,0,5.09,0,4.78,4.78,0,0,0,.45-.45v-.55h.4a3.85,3.85,0,0,0,0-4Z"/><path class="cls-1" d="M203.56,54.62h3.87a4,4,0,1,0,0-4h-3.87a5.82,5.82,0,0,1,0,4Z"/><path class="cls-1" d="M185.1,56.57a3.94,3.94,0,0,0,3.39-2h3.86a5.82,5.82,0,0,1,0-4h-3.86a4,4,0,1,0-3.39,6Z"/><path class="cls-1" d="M194.56,54.62a5.3,5.3,0,0,0,.39.54v-.54Z"/><path class="cls-1" d="M201,55.17a3.09,3.09,0,0,0,.4-.55H201Z"/><path class="cls-1" d="M201.35,50.59a3.71,3.71,0,0,0-.85-1,3.88,3.88,0,0,0-5.09,0,4.1,4.1,0,0,0-.85,1,3.85,3.85,0,0,0,0,4H195v.54a5,5,0,0,0,.46.46,3.88,3.88,0,0,0,5.09,0,4.78,4.78,0,0,0,.45-.45v-.55h.4a3.85,3.85,0,0,0,0-4Z"/><path class="cls-2" d="M208.81,72.54C208,77.32,203.46,81,198,81s-10.07-3.69-10.86-8.47h-18a43.39,43.39,0,0,0-83.1,0H63.52C62.73,77.32,58.17,81,52.66,81S42.59,77.32,41.8,72.54H23.57v25H86a43.39,43.39,0,0,0,83.1,0h62.44v-25Zm-43.91,25A39.13,39.13,0,1,1,167,85,39.44,39.44,0,0,1,164.9,97.54Z"/><path class="cls-1" d="M138.29,98.9c-.33,0-.66-.05-1-.05a9.48,9.48,0,0,0-6.7,2.77,11.4,11.4,0,0,1-.13,13.28,9.47,9.47,0,0,0,16.31-6.56c0-.18,0-.36,0-.53A11.51,11.51,0,0,1,138.29,98.9Z"/><path class="cls-1" d="M129.28,103.27a9,9,0,0,0-.62-.9c-.17-.22-.35-.43-.54-.64l-.33.16a11.55,11.55,0,0,1-4.73,1,11.42,11.42,0,0,1-7.24-2.58,10,10,0,0,0-1.18,1,11.77,11.77,0,0,1-2.21,3.18,9.48,9.48,0,0,0,15.43,10.4,9.86,9.86,0,0,0,.69-.76c.22-.29.43-.59.63-.89a9.41,9.41,0,0,0,.1-10Z"/><path class="cls-1" d="M149.56,87.2c-.24,0-.47,0-.7,0A11.52,11.52,0,0,1,141,92.56a9.35,9.35,0,0,0-1,4.12c0,.18,0,.36,0,.53a9.29,9.29,0,0,0,.12,1.06,7.25,7.25,0,0,0,.26,1.14,9.49,9.49,0,0,0,5.89,6.2,9.71,9.71,0,0,0,1.12.33c.35.07.7.14,1.06.18s.67,0,1,0a9.49,9.49,0,1,0,0-19Z"/><path class="cls-1" d="M112.84,86.21a11.53,11.53,0,0,1,6.52-5.64A9.49,9.49,0,1,0,101.08,77a9.47,9.47,0,0,0,4.43,8,11.35,11.35,0,0,1,4.42,1.44c.21,0,.42,0,.64,0A9.48,9.48,0,0,0,112.84,86.21Z"/><path class="cls-1" d="M111.57,91.43c0-.32,0-.64.05-1a9.63,9.63,0,0,0-2.31-2A9.41,9.41,0,0,0,104.89,87c-.21,0-.42,0-.64,0A9.47,9.47,0,1,0,113,100.12a10,10,0,0,0,.62-2.17A11.36,11.36,0,0,1,111.57,91.43Z"/><path class="cls-1" d="M132.5,90.66a11.52,11.52,0,0,1-4.74-7.45,9.55,9.55,0,0,0-8.38-.52A9.53,9.53,0,0,0,115,86.53a9.63,9.63,0,0,0-1.38,4.9c0,.08,0,.15,0,.23a9.25,9.25,0,0,0,2.11,5.74c.13.16.28.32.42.47a8.85,8.85,0,0,0,.76.74,10.71,10.71,0,0,0,.92.71,9.44,9.44,0,0,0,8.65,1,10,10,0,0,0,1-.48,9.71,9.71,0,0,0,.92-.55,9.49,9.49,0,0,0,4.13-7.83C132.54,91.17,132.52,90.92,132.5,90.66Z"/><path class="cls-1" d="M139.07,71.76a9.5,9.5,0,0,0-9.49,9.49c0,.26,0,.52,0,.77a9.82,9.82,0,0,0,.23,1.44,9.54,9.54,0,0,0,3.31,5.2,9.7,9.7,0,0,0,1.2.81,9.43,9.43,0,0,0,4.71,1.27c.24,0,.47,0,.7,0a8.23,8.23,0,0,0,1.32-.19,9.12,9.12,0,0,0,1.85-.61A9.43,9.43,0,0,0,145.69,88a8.9,8.9,0,0,0,1.25-1.49,10.2,10.2,0,0,0,.66-1.16,9.39,9.39,0,0,0,1-4.13A9.5,9.5,0,0,0,139.07,71.76Z"/></svg>