<svg id="Layer_2" data-name="Layer 2" xmlns="http://www.w3.org/2000/svg" viewBox="0 0 255.12 170.08"><defs><style>.cls-1{fill:#80cdea;}.cls-2{fill:#202021;}.cls-3{fill:#fff;}</style></defs><path class="cls-1" d="M140.93,51.36a14.82,14.82,0,1,0,14.81,14.82A14.83,14.83,0,0,0,140.93,51.36Z"/><circle class="cls-1" cx="209.51" cy="148.72" r="14.64"/><path class="cls-1" d="M157.1,142.54a14.43,14.43,0,0,0-1.12,4.74c0,.48.07,1,.07,1.44s0,.67-.05,1a14.64,14.64,0,1,0,14.57-16.09c-.26,0-.52,0-.77,0A17.7,17.7,0,0,1,157.1,142.54Z"/><path class="cls-1" d="M154.37,110.49a14.6,14.6,0,0,0-13.25,20.82,17.65,17.65,0,0,1,12.44,8.42c.27,0,.54,0,.81,0s.52,0,.78,0a14.46,14.46,0,0,0,1.87-.21,15.24,15.24,0,0,0,2.34-.64,14.68,14.68,0,0,0,6.23-4.36,15.11,15.11,0,0,0,1.38-2,14.16,14.16,0,0,0,.87-1.69,14.64,14.64,0,0,0-13.47-20.37Z"/><polygon class="cls-2" points="154.38 141.28 154.39 141.27 154.38 141.27 154.38 141.28"/><path class="cls-1" d="M122.64,140.88a14.64,14.64,0,1,0,0,15.69,17.39,17.39,0,0,1,0-15.69Z"/><path class="cls-1" d="M153,149.72c0-.33.05-.66.05-1a13.75,13.75,0,0,0-.07-1.44c0,.33,0,.66,0,1C152.93,148.76,153,149.24,153,149.72Z"/><path class="cls-1" d="M152.93,148.27c0-.33,0-.66,0-1a14.62,14.62,0,0,0-2.25-6.44,15.15,15.15,0,0,0-1.6-2.06,14.68,14.68,0,0,0-5.48-3.71,14.28,14.28,0,0,0-2.52-.72,14.88,14.88,0,0,0-1.91-.23c-.27,0-.53,0-.81,0a14.63,14.63,0,0,0-12.34,6.8,16.84,16.84,0,0,0-.89,1.61,14.45,14.45,0,0,0-.83,10.28,15.06,15.06,0,0,0,.83,2.18,15.86,15.86,0,0,0,.89,1.62A14.62,14.62,0,0,0,153,149.72C153,149.24,152.93,148.76,152.93,148.27Z"/><path class="cls-1" d="M57.88,141.92A17.65,17.65,0,0,1,45,134.43a14.63,14.63,0,1,0,13.24,21.93,17.51,17.51,0,0,1-.39-14.44Z"/><path class="cls-1" d="M74.19,134.08a17.63,17.63,0,0,1-12.49,7.77c-.17,0-.33.05-.5.06-.21.4-.41.81-.58,1.23a14.43,14.43,0,0,0-.78,2.52,14.06,14.06,0,0,0-.33,3.06,14.57,14.57,0,0,0,.41,3.39,13.88,13.88,0,0,0,1.74,4.21,14.63,14.63,0,1,0,12.53-22.24Z"/><path class="cls-1" d="M59.49,109.72A14.62,14.62,0,0,0,46.7,131.46a14.22,14.22,0,0,0,1,1.6,15,15,0,0,0,1.62,1.85,14.66,14.66,0,0,0,6.36,3.58,14.11,14.11,0,0,0,2.45.44c.42,0,.84.06,1.27.07h0c.2,0,.39,0,.58,0,.44,0,.89-.05,1.32-.11a14.22,14.22,0,0,0,2.45-.52,14.68,14.68,0,0,0,6-3.6,15.49,15.49,0,0,0,1.61-1.91,14.84,14.84,0,0,0,1-1.66,14.49,14.49,0,0,0,1.69-6.81A14.66,14.66,0,0,0,59.49,109.72Z"/><path class="cls-3" d="M161,62.31a13.62,13.62,0,0,0-1.74-6.5c-.46-.88-1-1.7-1.45-2.44s-.92-1.41-1.32-2.08c-2.78-4.63-6.64-9-12.52-10.11V6.4h-5.78V41.18c-5.87,1.1-9.74,5.48-12.51,10.11-.4.67-.83,1.31-1.32,2.08s-1,1.56-1.46,2.44a13.73,13.73,0,0,0-1.74,6.5h0v.21c0,.13,0,.31,0,.53,0,.44,0,1,.09,1.74a18.77,18.77,0,0,0,.82,4.62,2.9,2.9,0,0,0,3.69,1.75h0a2.89,2.89,0,0,0,1.75-3.7h0a13.48,13.48,0,0,1-.5-3.1c0-.58-.07-1.1-.08-1.48,0-.19,0-.34,0-.44v-.13h0a7.9,7.9,0,0,1,1.07-3.8c.35-.66.75-1.31,1.21-2s1-1.46,1.42-2.23c2.2-3.67,4.56-6.16,7.55-7.12V70.56A2.89,2.89,0,0,0,141,73.45h0a2.89,2.89,0,0,0,2.89-2.89V47.14c3,1,5.36,3.45,7.56,7.12.46.77,1,1.56,1.42,2.23s.86,1.36,1.2,2a7.9,7.9,0,0,1,1.07,3.8h0v.13c0,.1,0,.25,0,.44,0,.38,0,.9-.07,1.48a14,14,0,0,1-.51,3.1,2.9,2.9,0,0,0,1.75,3.7h0A2.89,2.89,0,0,0,160,69.41h0a19.29,19.29,0,0,0,.83-4.62c.05-.69.08-1.3.09-1.74,0-.22,0-.4,0-.53v-.21Z"/></svg>